  0
SECTION
  2
HEADER
  9
$ACADVER
  1
AC1009
  9
$INSBASE
 10
0.000000
 20
0.000000
  9
$LIMMIN
 10
-254.000000
 20
-274.000011
  9
$LIMMAX
 10
1143.000000
 20
1122.999989
  9
$EXTMIN
 10
-254.000000
 20
-274.000011
  9
$EXTMAX
 10
1143.000000
 20
1122.999989
  9
$ATTMODE
 70
0
  9
$LUNITS
 70
2
  9
$LUPREC
 70
3
  9
$THICKNESS
 40
0.264160
  0
ENDSEC
  0
SECTION
  2
TABLES
  0
TABLE
  2
LTYPE
 70
1
  0
LTYPE
  3
Solid Line
  2
CONTINUOUS
 70
0
 72
65
 73
0
 40
0.000000
  0
ENDTAB
  0
TABLE
  2
LAYER
 70
6
  0
LAYER
  2
BOARD_GEOMETRY_DIMENSION
 70
0
 62
1
  6
CONTINUOUS
  0
LAYER
  2
BOARD_GEOMETRY_TOOLING_CORNERS
 70
0
 62
2
  6
CONTINUOUS
  0
LAYER
  2
BOARD_GEOMETRY_OUTLINE
 70
0
 62
3
  6
CONTINUOUS
  0
LAYER
  2
DRAWING_FORMAT_TITLE_BLOCK
 70
0
 62
4
  6
CONTINUOUS
  0
LAYER
  2
PACKAGE_GEOMETRY_SILKSCREEN_TOP
 70
0
 62
5
  6
CONTINUOUS
  0
LAYER
  2
PIN_TOP
 70
0
 62
6
  6
CONTINUOUS
  0
ENDTAB
  0
TABLE
  2
STYLE
 70
1
  0
STYLE
  2
STANDARD
 70
0
 40
0.000000
 41
1.000000
 50
0.000000
 71
0
 42
0.200000
  3
txt
  0
ENDTAB
  0
ENDSEC
  0
SECTION
  2
BLOCKS
  0
BLOCK
  8
0
  2
FIGURE_CIRCLE
 70
0
 10
0.000000
 20
0.000000
  0
CIRCLE
  8
0
 10
0.000000
 20
0.000000
 40
0.500000
  0
ENDBLK
  0
BLOCK
  8
0
  2
FIGURE_SQUARE
 70
0
 10
0.000000
 20
0.000000
  0
POLYLINE
  8
0
 66
1
 70
1
 40
0.000000
 41
0.000000
 39
0.000000
  0
VERTEX
  8
0
 10
-0.500000
 20
-0.500000
 40
0.000000
 41
0.000000
 42
0.000000
  0
VERTEX
  8
0
 10
-0.500000
 20
0.500000
 40
0.000000
 41
0.000000
 42
0.000000
  0
VERTEX
  8
0
 10
0.500000
 20
0.500000
 40
0.000000
 41
0.000000
 42
0.000000
  0
VERTEX
  8
0
 10
0.500000
 20
-0.500000
 40
0.000000
 41
0.000000
 42
0.000000
  0
SEQEND
  0
ENDBLK
  0
BLOCK
  8
0
  2
FIGURE_HEX
 70
0
 10
0.000000
 20
0.000000
  0
POLYLINE
  8
0
 66
1
 70
1
 40
0.000000
 41
0.000000
 39
0.000000
  0
VERTEX
  8
0
 10
-0.500000
 20
0.000000
 40
0.000000
 41
0.000000
 42
0.000000
  0
VERTEX
  8
0
 10
-0.250000
 20
0.500000
 40
0.000000
 41
0.000000
 42
0.000000
  0
VERTEX
  8
0
 10
0.250000
 20
0.500000
 40
0.000000
 41
0.000000
 42
0.000000
  0
VERTEX
  8
0
 10
0.500000
 20
0.000000
 40
0.000000
 41
0.000000
 42
0.000000
  0
VERTEX
  8
0
 10
0.250000
 20
-0.500000
 40
0.000000
 41
0.000000
 42
0.000000
  0
VERTEX
  8
0
 10
-0.250000
 20
-0.500000
 40
0.000000
 41
0.000000
 42
0.000000
  0
SEQEND
  0
ENDBLK
  0
BLOCK
  8
0
  2
FIGURE_OCT
 70
0
 10
0.000000
 20
0.000000
  0
POLYLINE
  8
0
 66
1
 70
1
 40
0.000000
 41
0.000000
 39
0.000000
  0
VERTEX
  8
0
 10
-0.500000
 20
-0.207100
 40
0.000000
 41
0.000000
 42
0.000000
  0
VERTEX
  8
0
 10
-0.500000
 20
0.207100
 40
0.000000
 41
0.000000
 42
0.000000
  0
VERTEX
  8
0
 10
-0.207100
 20
0.500000
 40
0.000000
 41
0.000000
 42
0.000000
  0
VERTEX
  8
0
 10
0.207100
 20
0.500000
 40
0.000000
 41
0.000000
 42
0.000000
  0
VERTEX
  8
0
 10
0.500000
 20
0.207100
 40
0.000000
 41
0.000000
 42
0.000000
  0
VERTEX
  8
0
 10
0.500000
 20
-0.207100
 40
0.000000
 41
0.000000
 42
0.000000
  0
VERTEX
  8
0
 10
0.207100
 20
-0.500000
 40
0.000000
 41
0.000000
 42
0.000000
  0
VERTEX
  8
0
 10
-0.207100
 20
-0.500000
 40
0.000000
 41
0.000000
 42
0.000000
  0
SEQEND
  0
ENDBLK
  0
BLOCK
  8
0
  2
FIGURE_OBLONG
 70
0
 10
0.000000
 20
0.000000
  0
POLYLINE
  8
0
 66
1
 70
1
 40
0.000000
 41
0.000000
 39
0.000000
  0
VERTEX
  8
0
 10
-0.500000
 20
-0.125000
 40
0.000000
 41
0.000000
 42
0.000000
  0
VERTEX
  8
0
 10
-0.500000
 20
0.125000
 40
0.000000
 41
0.000000
 42
0.000000
  0
VERTEX
  8
0
 10
-0.416000
 20
0.375000
 40
0.000000
 41
0.000000
 42
0.000000
  0
VERTEX
  8
0
 10
-0.250000
 20
0.500000
 40
0.000000
 41
0.000000
 42
0.000000
  0
VERTEX
  8
0
 10
0.250000
 20
0.500000
 40
0.000000
 41
0.000000
 42
0.000000
  0
VERTEX
  8
0
 10
0.416000
 20
0.375000
 40
0.000000
 41
0.000000
 42
0.000000
  0
VERTEX
  8
0
 10
0.500000
 20
0.125000
 40
0.000000
 41
0.000000
 42
0.000000
  0
VERTEX
  8
0
 10
0.500000
 20
-0.125000
 40
0.000000
 41
0.000000
 42
0.000000
  0
VERTEX
  8
0
 10
0.416000
 20
-0.375000
 40
0.000000
 41
0.000000
 42
0.000000
  0
VERTEX
  8
0
 10
0.250000
 20
-0.500000
 40
0.000000
 41
0.000000
 42
0.000000
  0
VERTEX
  8
0
 10
-0.250000
 20
-0.500000
 40
0.000000
 41
0.000000
 42
0.000000
  0
VERTEX
  8
0
 10
-0.416000
 20
-0.375000
 40
0.000000
 41
0.000000
 42
0.000000
  0
SEQEND
  0
ENDBLK
  0
BLOCK
  8
0
  2
FIGURE_TRI
 70
0
 10
0.000000
 20
0.000000
  0
POLYLINE
  8
0
 66
1
 70
1
 40
0.000000
 41
0.000000
 39
0.000000
  0
VERTEX
  8
0
 10
-0.500000
 20
-0.500000
 40
0.000000
 41
0.000000
 42
0.000000
  0
VERTEX
  8
0
 10
0.000000
 20
0.500000
 40
0.000000
 41
0.000000
 42
0.000000
  0
VERTEX
  8
0
 10
0.500000
 20
-0.500000
 40
0.000000
 41
0.000000
 42
0.000000
  0
SEQEND
  0
ENDBLK
  0
BLOCK
  8
0
  2
FIGURE_CROSS
 70
0
 10
0.000000
 20
0.000000
  0
POLYLINE
  8
0
 66
1
 70
0
 40
0.000000
 41
0.000000
 39
0.000000
  0
VERTEX
  8
0
 10
-0.500000
 20
0.000000
 40
0.000000
 41
0.000000
 42
0.000000
  0
VERTEX
  8
0
 10
0.500000
 20
0.000000
 40
0.000000
 41
0.000000
 42
0.000000
  0
SEQEND
  0
POLYLINE
  8
0
 66
1
 70
0
 40
0.000000
 41
0.000000
 39
0.000000
  0
VERTEX
  8
0
 10
0.000000
 20
0.500000
 40
0.000000
 41
0.000000
 42
0.000000
  0
VERTEX
  8
0
 10
0.000000
 20
-0.500000
 40
0.000000
 41
0.000000
 42
0.000000
  0
SEQEND
  0
ENDBLK
  0
BLOCK
  8
0
  2
FIGURE_DIAMOND
 70
0
 10
0.000000
 20
0.000000
  0
POLYLINE
  8
0
 66
1
 70
1
 40
0.000000
 41
0.000000
 39
0.000000
  0
VERTEX
  8
0
 10
-0.500000
 20
0.000000
 40
0.000000
 41
0.000000
 42
0.000000
  0
VERTEX
  8
0
 10
0.000000
 20
0.500000
 40
0.000000
 41
0.000000
 42
0.000000
  0
VERTEX
  8
0
 10
0.500000
 20
0.000000
 40
0.000000
 41
0.000000
 42
0.000000
  0
VERTEX
  8
0
 10
0.000000
 20
-0.500000
 40
0.000000
 41
0.000000
 42
0.000000
  0
SEQEND
  0
ENDBLK
  0
ENDSEC
  0
SECTION
  2
ENTITIES
  0
POLYLINE
  8
BOARD_GEOMETRY_DIMENSION
 66
1
 70
1
 40
0.000000
 41
0.000000
 39
0.000000
  0
VERTEX
  8
BOARD_GEOMETRY_DIMENSION
 10
115.305992
 20
121.000012
 40
0.000000
 41
0.000000
 42
0.000000
  0
VERTEX
  8
BOARD_GEOMETRY_DIMENSION
 10
114.681000
 20
125.000004
 40
0.000000
 41
0.000000
 42
0.000000
  0
VERTEX
  8
BOARD_GEOMETRY_DIMENSION
 10
114.056008
 20
121.000012
 40
0.000000
 41
0.000000
 42
0.000000
  0
SEQEND
  0
POLYLINE
  8
BOARD_GEOMETRY_DIMENSION
 66
1
 70
0
 40
0.000000
 41
0.000000
 39
0.000000
  0
VERTEX
  8
BOARD_GEOMETRY_DIMENSION
 10
114.681000
 20
108.997750
 40
0.000000
 41
0.000000
 42
0.000000
  0
VERTEX
  8
BOARD_GEOMETRY_DIMENSION
 10
114.681000
 20
125.000004
 40
0.000000
 41
0.000000
 42
0.000000
  0
SEQEND
  0
POLYLINE
  8
BOARD_GEOMETRY_DIMENSION
 66
1
 70
1
 40
0.000000
 41
0.000000
 39
0.000000
  0
VERTEX
  8
BOARD_GEOMETRY_DIMENSION
 10
114.056008
 20
95.999986
 40
0.000000
 41
0.000000
 42
0.000000
  0
VERTEX
  8
BOARD_GEOMETRY_DIMENSION
 10
114.681000
 20
91.999994
 40
0.000000
 41
0.000000
 42
0.000000
  0
VERTEX
  8
BOARD_GEOMETRY_DIMENSION
 10
115.305992
 20
95.999986
 40
0.000000
 41
0.000000
 42
0.000000
  0
SEQEND
  0
POLYLINE
  8
BOARD_GEOMETRY_DIMENSION
 66
1
 70
0
 40
0.000000
 41
0.000000
 39
0.000000
  0
VERTEX
  8
BOARD_GEOMETRY_DIMENSION
 10
114.681000
 20
101.060250
 40
0.000000
 41
0.000000
 42
0.000000
  0
VERTEX
  8
BOARD_GEOMETRY_DIMENSION
 10
114.681000
 20
91.999994
 40
0.000000
 41
0.000000
 42
0.000000
  0
SEQEND
  0
POLYLINE
  8
BOARD_GEOMETRY_DIMENSION
 66
1
 70
0
 40
0.000000
 41
0.000000
 39
0.000000
  0
VERTEX
  8
BOARD_GEOMETRY_DIMENSION
 10
95.999986
 20
91.999994
 40
0.000000
 41
0.000000
 42
0.000000
  0
VERTEX
  8
BOARD_GEOMETRY_DIMENSION
 10
117.180995
 20
91.999994
 40
0.000000
 41
0.000000
 42
0.000000
  0
SEQEND
  0
POLYLINE
  8
BOARD_GEOMETRY_DIMENSION
 66
1
 70
0
 40
0.000000
 41
0.000000
 39
0.000000
  0
VERTEX
  8
BOARD_GEOMETRY_DIMENSION
 10
107.499988
 20
125.000004
 40
0.000000
 41
0.000000
 42
0.000000
  0
VERTEX
  8
BOARD_GEOMETRY_DIMENSION
 10
117.180995
 20
125.000004
 40
0.000000
 41
0.000000
 42
0.000000
  0
SEQEND
  0
TEXT
  8
BOARD_GEOMETRY_DIMENSION
 10
111.925659
 20
103.441500
 11
0.000000
 21
0.000000
 40
3.175000
 41
0.991744
 50
0.000000
  7
STANDARD
 71
0
 72
0
  1
33
 73
0
  0
POLYLINE
  8
BOARD_GEOMETRY_DIMENSION
 66
1
 70
1
 40
0.000000
 41
0.000000
 39
0.000000
  0
VERTEX
  8
BOARD_GEOMETRY_DIMENSION
 10
114.000001
 20
-5.090008
 40
0.000000
 41
0.000000
 42
0.000000
  0
VERTEX
  8
BOARD_GEOMETRY_DIMENSION
 10
110.000009
 20
-5.715000
 40
0.000000
 41
0.000000
 42
0.000000
  0
VERTEX
  8
BOARD_GEOMETRY_DIMENSION
 10
114.000001
 20
-6.339992
 40
0.000000
 41
0.000000
 42
0.000000
  0
SEQEND
  0
POLYLINE
  8
BOARD_GEOMETRY_DIMENSION
 66
1
 70
0
 40
0.000000
 41
0.000000
 39
0.000000
  0
VERTEX
  8
BOARD_GEOMETRY_DIMENSION
 10
111.893198
 20
-5.715000
 40
0.000000
 41
0.000000
 42
0.000000
  0
VERTEX
  8
BOARD_GEOMETRY_DIMENSION
 10
110.000009
 20
-5.715000
 40
0.000000
 41
0.000000
 42
0.000000
  0
SEQEND
  0
POLYLINE
  8
BOARD_GEOMETRY_DIMENSION
 66
1
 70
1
 40
0.000000
 41
0.000000
 39
0.000000
  0
VERTEX
  8
BOARD_GEOMETRY_DIMENSION
 10
101.000001
 20
-6.339992
 40
0.000000
 41
0.000000
 42
0.000000
  0
VERTEX
  8
BOARD_GEOMETRY_DIMENSION
 10
104.999993
 20
-5.715000
 40
0.000000
 41
0.000000
 42
0.000000
  0
VERTEX
  8
BOARD_GEOMETRY_DIMENSION
 10
101.000001
 20
-5.090008
 40
0.000000
 41
0.000000
 42
0.000000
  0
SEQEND
  0
POLYLINE
  8
BOARD_GEOMETRY_DIMENSION
 66
1
 70
0
 40
0.000000
 41
0.000000
 39
0.000000
  0
VERTEX
  8
BOARD_GEOMETRY_DIMENSION
 10
104.768802
 20
-5.715000
 40
0.000000
 41
0.000000
 42
0.000000
  0
VERTEX
  8
BOARD_GEOMETRY_DIMENSION
 10
104.999993
 20
-5.715000
 40
0.000000
 41
0.000000
 42
0.000000
  0
SEQEND
  0
POLYLINE
  8
BOARD_GEOMETRY_DIMENSION
 66
1
 70
0
 40
0.000000
 41
0.000000
 39
0.000000
  0
VERTEX
  8
BOARD_GEOMETRY_DIMENSION
 10
110.000009
 20
-2.499995
 40
0.000000
 41
0.000000
 42
0.000000
  0
VERTEX
  8
BOARD_GEOMETRY_DIMENSION
 10
110.000009
 20
-8.214995
 40
0.000000
 41
0.000000
 42
0.000000
  0
SEQEND
  0
POLYLINE
  8
BOARD_GEOMETRY_DIMENSION
 66
1
 70
0
 40
0.000000
 41
0.000000
 39
0.000000
  0
VERTEX
  8
BOARD_GEOMETRY_DIMENSION
 10
104.999993
 20
2.499995
 40
0.000000
 41
0.000000
 42
0.000000
  0
VERTEX
  8
BOARD_GEOMETRY_DIMENSION
 10
104.999993
 20
-8.214995
 40
0.000000
 41
0.000000
 42
0.000000
  0
SEQEND
  0
TEXT
  8
BOARD_GEOMETRY_DIMENSION
 10
107.150052
 20
-7.302500
 11
0.000000
 21
0.000000
 40
3.175000
 41
0.991744
 50
0.000000
  7
STANDARD
 71
0
 72
0
  1
5
 73
0
  0
POLYLINE
  8
BOARD_GEOMETRY_DIMENSION
 66
1
 70
1
 40
0.000000
 41
0.000000
 39
0.000000
  0
VERTEX
  8
BOARD_GEOMETRY_DIMENSION
 10
112.659008
 20
8.999982
 40
0.000000
 41
0.000000
 42
0.000000
  0
VERTEX
  8
BOARD_GEOMETRY_DIMENSION
 10
113.284000
 20
4.999990
 40
0.000000
 41
0.000000
 42
0.000000
  0
VERTEX
  8
BOARD_GEOMETRY_DIMENSION
 10
113.908992
 20
8.999982
 40
0.000000
 41
0.000000
 42
0.000000
  0
SEQEND
  0
POLYLINE
  8
BOARD_GEOMETRY_DIMENSION
 66
1
 70
0
 40
0.000000
 41
0.000000
 39
0.000000
  0
VERTEX
  8
BOARD_GEOMETRY_DIMENSION
 10
113.284000
 20
6.127750
 40
0.000000
 41
0.000000
 42
0.000000
  0
VERTEX
  8
BOARD_GEOMETRY_DIMENSION
 10
113.284000
 20
4.999990
 40
0.000000
 41
0.000000
 42
0.000000
  0
SEQEND
  0
POLYLINE
  8
BOARD_GEOMETRY_DIMENSION
 66
1
 70
1
 40
0.000000
 41
0.000000
 39
0.000000
  0
VERTEX
  8
BOARD_GEOMETRY_DIMENSION
 10
113.908992
 20
-3.999992
 40
0.000000
 41
0.000000
 42
0.000000
  0
VERTEX
  8
BOARD_GEOMETRY_DIMENSION
 10
113.284000
 20
0.000000
 40
0.000000
 41
0.000000
 42
0.000000
  0
VERTEX
  8
BOARD_GEOMETRY_DIMENSION
 10
112.659008
 20
-3.999992
 40
0.000000
 41
0.000000
 42
0.000000
  0
SEQEND
  0
POLYLINE
  8
BOARD_GEOMETRY_DIMENSION
 66
1
 70
0
 40
0.000000
 41
0.000000
 39
0.000000
  0
VERTEX
  8
BOARD_GEOMETRY_DIMENSION
 10
113.284000
 20
-1.809750
 40
0.000000
 41
0.000000
 42
0.000000
  0
VERTEX
  8
BOARD_GEOMETRY_DIMENSION
 10
113.284000
 20
0.000000
 40
0.000000
 41
0.000000
 42
0.000000
  0
SEQEND
  0
POLYLINE
  8
BOARD_GEOMETRY_DIMENSION
 66
1
 70
0
 40
0.000000
 41
0.000000
 39
0.000000
  0
VERTEX
  8
BOARD_GEOMETRY_DIMENSION
 10
112.500004
 20
0.000000
 40
0.000000
 41
0.000000
 42
0.000000
  0
VERTEX
  8
BOARD_GEOMETRY_DIMENSION
 10
115.783995
 20
0.000000
 40
0.000000
 41
0.000000
 42
0.000000
  0
SEQEND
  0
POLYLINE
  8
BOARD_GEOMETRY_DIMENSION
 66
1
 70
0
 40
0.000000
 41
0.000000
 39
0.000000
  0
VERTEX
  8
BOARD_GEOMETRY_DIMENSION
 10
107.499988
 20
4.999990
 40
0.000000
 41
0.000000
 42
0.000000
  0
VERTEX
  8
BOARD_GEOMETRY_DIMENSION
 10
115.783995
 20
4.999990
 40
0.000000
 41
0.000000
 42
0.000000
  0
SEQEND
  0
TEXT
  8
BOARD_GEOMETRY_DIMENSION
 10
112.103052
 20
0.571500
 11
0.000000
 21
0.000000
 40
3.175000
 41
0.991744
 50
0.000000
  7
STANDARD
 71
0
 72
0
  1
5
 73
0
  0
POLYLINE
  8
BOARD_GEOMETRY_DIMENSION
 66
1
 70
1
 40
0.000000
 41
0.000000
 39
0.000000
  0
VERTEX
  8
BOARD_GEOMETRY_DIMENSION
 10
106.161992
 20
24.000003
 40
0.000000
 41
0.000000
 42
0.000000
  0
VERTEX
  8
BOARD_GEOMETRY_DIMENSION
 10
105.537000
 20
27.999995
 40
0.000000
 41
0.000000
 42
0.000000
  0
VERTEX
  8
BOARD_GEOMETRY_DIMENSION
 10
104.912008
 20
24.000003
 40
0.000000
 41
0.000000
 42
0.000000
  0
SEQEND
  0
POLYLINE
  8
BOARD_GEOMETRY_DIMENSION
 66
1
 70
0
 40
0.000000
 41
0.000000
 39
0.000000
  0
VERTEX
  8
BOARD_GEOMETRY_DIMENSION
 10
105.537000
 20
21.113750
 40
0.000000
 41
0.000000
 42
0.000000
  0
VERTEX
  8
BOARD_GEOMETRY_DIMENSION
 10
105.537000
 20
27.999995
 40
0.000000
 41
0.000000
 42
0.000000
  0
SEQEND
  0
POLYLINE
  8
BOARD_GEOMETRY_DIMENSION
 66
1
 70
1
 40
0.000000
 41
0.000000
 39
0.000000
  0
VERTEX
  8
BOARD_GEOMETRY_DIMENSION
 10
104.912008
 20
8.999982
 40
0.000000
 41
0.000000
 42
0.000000
  0
VERTEX
  8
BOARD_GEOMETRY_DIMENSION
 10
105.537000
 20
4.999990
 40
0.000000
 41
0.000000
 42
0.000000
  0
VERTEX
  8
BOARD_GEOMETRY_DIMENSION
 10
106.161992
 20
8.999982
 40
0.000000
 41
0.000000
 42
0.000000
  0
SEQEND
  0
POLYLINE
  8
BOARD_GEOMETRY_DIMENSION
 66
1
 70
0
 40
0.000000
 41
0.000000
 39
0.000000
  0
VERTEX
  8
BOARD_GEOMETRY_DIMENSION
 10
105.537000
 20
13.176250
 40
0.000000
 41
0.000000
 42
0.000000
  0
VERTEX
  8
BOARD_GEOMETRY_DIMENSION
 10
105.537000
 20
4.999990
 40
0.000000
 41
0.000000
 42
0.000000
  0
SEQEND
  0
POLYLINE
  8
BOARD_GEOMETRY_DIMENSION
 66
1
 70
0
 40
0.000000
 41
0.000000
 39
0.000000
  0
VERTEX
  8
BOARD_GEOMETRY_DIMENSION
 10
107.499988
 20
4.999990
 40
0.000000
 41
0.000000
 42
0.000000
  0
VERTEX
  8
BOARD_GEOMETRY_DIMENSION
 10
108.036995
 20
4.999990
 40
0.000000
 41
0.000000
 42
0.000000
  0
SEQEND
  0
POLYLINE
  8
BOARD_GEOMETRY_DIMENSION
 66
1
 70
0
 40
0.000000
 41
0.000000
 39
0.000000
  0
VERTEX
  8
BOARD_GEOMETRY_DIMENSION
 10
95.999986
 20
27.999995
 40
0.000000
 41
0.000000
 42
0.000000
  0
VERTEX
  8
BOARD_GEOMETRY_DIMENSION
 10
108.036995
 20
27.999995
 40
0.000000
 41
0.000000
 42
0.000000
  0
SEQEND
  0
TEXT
  8
BOARD_GEOMETRY_DIMENSION
 10
102.781659
 20
15.557500
 11
0.000000
 21
0.000000
 40
3.175000
 41
0.991744
 50
0.000000
  7
STANDARD
 71
0
 72
0
  1
23
 73
0
  0
POLYLINE
  8
BOARD_GEOMETRY_DIMENSION
 66
1
 70
1
 40
0.000000
 41
0.000000
 39
0.000000
  0
VERTEX
  8
BOARD_GEOMETRY_DIMENSION
 10
28.310992
 20
126.048008
 40
0.000000
 41
0.000000
 42
0.000000
  0
VERTEX
  8
BOARD_GEOMETRY_DIMENSION
 10
27.686000
 20
130.048000
 40
0.000000
 41
0.000000
 42
0.000000
  0
VERTEX
  8
BOARD_GEOMETRY_DIMENSION
 10
27.061008
 20
126.048008
 40
0.000000
 41
0.000000
 42
0.000000
  0
SEQEND
  0
POLYLINE
  8
BOARD_GEOMETRY_DIMENSION
 66
1
 70
0
 40
0.000000
 41
0.000000
 39
0.000000
  0
VERTEX
  8
BOARD_GEOMETRY_DIMENSION
 10
27.686000
 20
117.379750
 40
0.000000
 41
0.000000
 42
0.000000
  0
VERTEX
  8
BOARD_GEOMETRY_DIMENSION
 10
27.686000
 20
130.048000
 40
0.000000
 41
0.000000
 42
0.000000
  0
SEQEND
  0
POLYLINE
  8
BOARD_GEOMETRY_DIMENSION
 66
1
 70
1
 40
0.000000
 41
0.000000
 39
0.000000
  0
VERTEX
  8
BOARD_GEOMETRY_DIMENSION
 10
27.061008
 20
103.269999
 40
0.000000
 41
0.000000
 42
0.000000
  0
VERTEX
  8
BOARD_GEOMETRY_DIMENSION
 10
27.686000
 20
99.270007
 40
0.000000
 41
0.000000
 42
0.000000
  0
VERTEX
  8
BOARD_GEOMETRY_DIMENSION
 10
28.310992
 20
103.269999
 40
0.000000
 41
0.000000
 42
0.000000
  0
SEQEND
  0
POLYLINE
  8
BOARD_GEOMETRY_DIMENSION
 66
1
 70
0
 40
0.000000
 41
0.000000
 39
0.000000
  0
VERTEX
  8
BOARD_GEOMETRY_DIMENSION
 10
27.686000
 20
109.442250
 40
0.000000
 41
0.000000
 42
0.000000
  0
VERTEX
  8
BOARD_GEOMETRY_DIMENSION
 10
27.686000
 20
99.270007
 40
0.000000
 41
0.000000
 42
0.000000
  0
SEQEND
  0
POLYLINE
  8
BOARD_GEOMETRY_DIMENSION
 66
1
 70
0
 40
0.000000
 41
0.000000
 39
0.000000
  0
VERTEX
  8
BOARD_GEOMETRY_DIMENSION
 10
32.500011
 20
99.270007
 40
0.000000
 41
0.000000
 42
0.000000
  0
VERTEX
  8
BOARD_GEOMETRY_DIMENSION
 10
25.186005
 20
99.270007
 40
0.000000
 41
0.000000
 42
0.000000
  0
SEQEND
  0
POLYLINE
  8
BOARD_GEOMETRY_DIMENSION
 66
1
 70
0
 40
0.000000
 41
0.000000
 39
0.000000
  0
VERTEX
  8
BOARD_GEOMETRY_DIMENSION
 10
32.171005
 20
130.048000
 40
0.000000
 41
0.000000
 42
0.000000
  0
VERTEX
  8
BOARD_GEOMETRY_DIMENSION
 10
25.186005
 20
130.048000
 40
0.000000
 41
0.000000
 42
0.000000
  0
SEQEND
  0
TEXT
  8
BOARD_GEOMETRY_DIMENSION
 10
20.207478
 20
111.823500
 11
0.000000
 21
0.000000
 40
3.175000
 41
0.991744
 50
0.000000
  7
STANDARD
 71
0
 72
0
  1
30.78
 73
0
  0
POLYLINE
  8
BOARD_GEOMETRY_DIMENSION
 66
1
 70
1
 40
0.000000
 41
0.000000
 39
0.000000
  0
VERTEX
  8
BOARD_GEOMETRY_DIMENSION
 10
31.000014
 20
101.356008
 40
0.000000
 41
0.000000
 42
0.000000
  0
VERTEX
  8
BOARD_GEOMETRY_DIMENSION
 10
35.000006
 20
101.981000
 40
0.000000
 41
0.000000
 42
0.000000
  0
VERTEX
  8
BOARD_GEOMETRY_DIMENSION
 10
31.000014
 20
102.605992
 40
0.000000
 41
0.000000
 42
0.000000
  0
SEQEND
  0
POLYLINE
  8
BOARD_GEOMETRY_DIMENSION
 66
1
 70
0
 40
0.000000
 41
0.000000
 39
0.000000
  0
VERTEX
  8
BOARD_GEOMETRY_DIMENSION
 10
21.519591
 20
101.981000
 40
0.000000
 41
0.000000
 42
0.000000
  0
VERTEX
  8
BOARD_GEOMETRY_DIMENSION
 10
35.000006
 20
101.981000
 40
0.000000
 41
0.000000
 42
0.000000
  0
SEQEND
  0
POLYLINE
  8
BOARD_GEOMETRY_DIMENSION
 66
1
 70
1
 40
0.000000
 41
0.000000
 39
0.000000
  0
VERTEX
  8
BOARD_GEOMETRY_DIMENSION
 10
3.999992
 20
102.605992
 40
0.000000
 41
0.000000
 42
0.000000
  0
VERTEX
  8
BOARD_GEOMETRY_DIMENSION
 10
0.000000
 20
101.981000
 40
0.000000
 41
0.000000
 42
0.000000
  0
VERTEX
  8
BOARD_GEOMETRY_DIMENSION
 10
3.999992
 20
101.356008
 40
0.000000
 41
0.000000
 42
0.000000
  0
SEQEND
  0
POLYLINE
  8
BOARD_GEOMETRY_DIMENSION
 66
1
 70
0
 40
0.000000
 41
0.000000
 39
0.000000
  0
VERTEX
  8
BOARD_GEOMETRY_DIMENSION
 10
11.246409
 20
101.981000
 40
0.000000
 41
0.000000
 42
0.000000
  0
VERTEX
  8
BOARD_GEOMETRY_DIMENSION
 10
0.000000
 20
101.981000
 40
0.000000
 41
0.000000
 42
0.000000
  0
SEQEND
  0
POLYLINE
  8
BOARD_GEOMETRY_DIMENSION
 66
1
 70
0
 40
0.000000
 41
0.000000
 39
0.000000
  0
VERTEX
  8
BOARD_GEOMETRY_DIMENSION
 10
35.000006
 20
101.770002
 40
0.000000
 41
0.000000
 42
0.000000
  0
VERTEX
  8
BOARD_GEOMETRY_DIMENSION
 10
35.000006
 20
104.480995
 40
0.000000
 41
0.000000
 42
0.000000
  0
SEQEND
  0
POLYLINE
  8
BOARD_GEOMETRY_DIMENSION
 66
1
 70
0
 40
0.000000
 41
0.000000
 39
0.000000
  0
VERTEX
  8
BOARD_GEOMETRY_DIMENSION
 10
0.000000
 20
101.813995
 40
0.000000
 41
0.000000
 42
0.000000
  0
VERTEX
  8
BOARD_GEOMETRY_DIMENSION
 10
0.000000
 20
104.480995
 40
0.000000
 41
0.000000
 42
0.000000
  0
SEQEND
  0
TEXT
  8
BOARD_GEOMETRY_DIMENSION
 10
13.627659
 20
100.393500
 11
0.000000
 21
0.000000
 40
3.175000
 41
0.991744
 50
0.000000
  7
STANDARD
 71
0
 72
0
  1
35
 73
0
  0
POLYLINE
  8
BOARD_GEOMETRY_DIMENSION
 66
1
 70
1
 40
0.000000
 41
0.000000
 39
0.000000
  0
VERTEX
  8
BOARD_GEOMETRY_DIMENSION
 10
105.982008
 20
101.864008
 40
0.000000
 41
0.000000
 42
0.000000
  0
VERTEX
  8
BOARD_GEOMETRY_DIMENSION
 10
109.982000
 20
102.489000
 40
0.000000
 41
0.000000
 42
0.000000
  0
VERTEX
  8
BOARD_GEOMETRY_DIMENSION
 10
105.982008
 20
103.113992
 40
0.000000
 41
0.000000
 42
0.000000
  0
SEQEND
  0
POLYLINE
  8
BOARD_GEOMETRY_DIMENSION
 66
1
 70
0
 40
0.000000
 41
0.000000
 39
0.000000
  0
VERTEX
  8
BOARD_GEOMETRY_DIMENSION
 10
102.569772
 20
102.489000
 40
0.000000
 41
0.000000
 42
0.000000
  0
VERTEX
  8
BOARD_GEOMETRY_DIMENSION
 10
109.982000
 20
102.489000
 40
0.000000
 41
0.000000
 42
0.000000
  0
SEQEND
  0
POLYLINE
  8
BOARD_GEOMETRY_DIMENSION
 66
1
 70
1
 40
0.000000
 41
0.000000
 39
0.000000
  0
VERTEX
  8
BOARD_GEOMETRY_DIMENSION
 10
78.999994
 20
103.113992
 40
0.000000
 41
0.000000
 42
0.000000
  0
VERTEX
  8
BOARD_GEOMETRY_DIMENSION
 10
75.000002
 20
102.489000
 40
0.000000
 41
0.000000
 42
0.000000
  0
VERTEX
  8
BOARD_GEOMETRY_DIMENSION
 10
78.999994
 20
101.864008
 40
0.000000
 41
0.000000
 42
0.000000
  0
SEQEND
  0
POLYLINE
  8
BOARD_GEOMETRY_DIMENSION
 66
1
 70
0
 40
0.000000
 41
0.000000
 39
0.000000
  0
VERTEX
  8
BOARD_GEOMETRY_DIMENSION
 10
82.850228
 20
102.489000
 40
0.000000
 41
0.000000
 42
0.000000
  0
VERTEX
  8
BOARD_GEOMETRY_DIMENSION
 10
75.000002
 20
102.489000
 40
0.000000
 41
0.000000
 42
0.000000
  0
SEQEND
  0
POLYLINE
  8
BOARD_GEOMETRY_DIMENSION
 66
1
 70
0
 40
0.000000
 41
0.000000
 39
0.000000
  0
VERTEX
  8
BOARD_GEOMETRY_DIMENSION
 10
109.982000
 20
100.670995
 40
0.000000
 41
0.000000
 42
0.000000
  0
VERTEX
  8
BOARD_GEOMETRY_DIMENSION
 10
109.982000
 20
104.988995
 40
0.000000
 41
0.000000
 42
0.000000
  0
SEQEND
  0
POLYLINE
  8
BOARD_GEOMETRY_DIMENSION
 66
1
 70
0
 40
0.000000
 41
0.000000
 39
0.000000
  0
VERTEX
  8
BOARD_GEOMETRY_DIMENSION
 10
75.000002
 20
101.770002
 40
0.000000
 41
0.000000
 42
0.000000
  0
VERTEX
  8
BOARD_GEOMETRY_DIMENSION
 10
75.000002
 20
104.988995
 40
0.000000
 41
0.000000
 42
0.000000
  0
SEQEND
  0
TEXT
  8
BOARD_GEOMETRY_DIMENSION
 10
85.231478
 20
100.901500
 11
0.000000
 21
0.000000
 40
3.175000
 41
0.991744
 50
0.000000
  7
STANDARD
 71
0
 72
0
  1
34.98
 73
0
  0
POLYLINE
  8
BOARD_GEOMETRY_DIMENSION
 66
1
 70
1
 40
0.000000
 41
0.000000
 39
0.000000
  0
VERTEX
  8
BOARD_GEOMETRY_DIMENSION
 10
71.000010
 20
87.259008
 40
0.000000
 41
0.000000
 42
0.000000
  0
VERTEX
  8
BOARD_GEOMETRY_DIMENSION
 10
75.000002
 20
87.884000
 40
0.000000
 41
0.000000
 42
0.000000
  0
VERTEX
  8
BOARD_GEOMETRY_DIMENSION
 10
71.000010
 20
88.508992
 40
0.000000
 41
0.000000
 42
0.000000
  0
SEQEND
  0
POLYLINE
  8
BOARD_GEOMETRY_DIMENSION
 66
1
 70
0
 40
0.000000
 41
0.000000
 39
0.000000
  0
VERTEX
  8
BOARD_GEOMETRY_DIMENSION
 10
55.555591
 20
87.884000
 40
0.000000
 41
0.000000
 42
0.000000
  0
VERTEX
  8
BOARD_GEOMETRY_DIMENSION
 10
75.000002
 20
87.884000
 40
0.000000
 41
0.000000
 42
0.000000
  0
SEQEND
  0
POLYLINE
  8
BOARD_GEOMETRY_DIMENSION
 66
1
 70
1
 40
0.000000
 41
0.000000
 39
0.000000
  0
VERTEX
  8
BOARD_GEOMETRY_DIMENSION
 10
38.999998
 20
88.508992
 40
0.000000
 41
0.000000
 42
0.000000
  0
VERTEX
  8
BOARD_GEOMETRY_DIMENSION
 10
35.000006
 20
87.884000
 40
0.000000
 41
0.000000
 42
0.000000
  0
VERTEX
  8
BOARD_GEOMETRY_DIMENSION
 10
38.999998
 20
87.259008
 40
0.000000
 41
0.000000
 42
0.000000
  0
SEQEND
  0
POLYLINE
  8
BOARD_GEOMETRY_DIMENSION
 66
1
 70
0
 40
0.000000
 41
0.000000
 39
0.000000
  0
VERTEX
  8
BOARD_GEOMETRY_DIMENSION
 10
45.282409
 20
87.884000
 40
0.000000
 41
0.000000
 42
0.000000
  0
VERTEX
  8
BOARD_GEOMETRY_DIMENSION
 10
35.000006
 20
87.884000
 40
0.000000
 41
0.000000
 42
0.000000
  0
SEQEND
  0
POLYLINE
  8
BOARD_GEOMETRY_DIMENSION
 66
1
 70
0
 40
0.000000
 41
0.000000
 39
0.000000
  0
VERTEX
  8
BOARD_GEOMETRY_DIMENSION
 10
75.000002
 20
96.770012
 40
0.000000
 41
0.000000
 42
0.000000
  0
VERTEX
  8
BOARD_GEOMETRY_DIMENSION
 10
75.000002
 20
85.384005
 40
0.000000
 41
0.000000
 42
0.000000
  0
SEQEND
  0
POLYLINE
  8
BOARD_GEOMETRY_DIMENSION
 66
1
 70
0
 40
0.000000
 41
0.000000
 39
0.000000
  0
VERTEX
  8
BOARD_GEOMETRY_DIMENSION
 10
35.000006
 20
96.770012
 40
0.000000
 41
0.000000
 42
0.000000
  0
VERTEX
  8
BOARD_GEOMETRY_DIMENSION
 10
35.000006
 20
85.384005
 40
0.000000
 41
0.000000
 42
0.000000
  0
SEQEND
  0
TEXT
  8
BOARD_GEOMETRY_DIMENSION
 10
47.663659
 20
86.296500
 11
0.000000
 21
0.000000
 40
3.175000
 41
0.991744
 50
0.000000
  7
STANDARD
 71
0
 72
0
  1
40
 73
0
  0
POLYLINE
  8
BOARD_GEOMETRY_DIMENSION
 66
1
 70
1
 40
0.000000
 41
0.000000
 39
0.000000
  0
VERTEX
  8
BOARD_GEOMETRY_DIMENSION
 10
46.999982
 20
102.351992
 40
0.000000
 41
0.000000
 42
0.000000
  0
VERTEX
  8
BOARD_GEOMETRY_DIMENSION
 10
42.999990
 20
101.727000
 40
0.000000
 41
0.000000
 42
0.000000
  0
VERTEX
  8
BOARD_GEOMETRY_DIMENSION
 10
46.999982
 20
101.102008
 40
0.000000
 41
0.000000
 42
0.000000
  0
SEQEND
  0
POLYLINE
  8
BOARD_GEOMETRY_DIMENSION
 66
1
 70
0
 40
0.000000
 41
0.000000
 39
0.000000
  0
VERTEX
  8
BOARD_GEOMETRY_DIMENSION
 10
42.551198
 20
101.727000
 40
0.000000
 41
0.000000
 42
0.000000
  0
VERTEX
  8
BOARD_GEOMETRY_DIMENSION
 10
42.999990
 20
101.727000
 40
0.000000
 41
0.000000
 42
0.000000
  0
SEQEND
  0
POLYLINE
  8
BOARD_GEOMETRY_DIMENSION
 66
1
 70
1
 40
0.000000
 41
0.000000
 39
0.000000
  0
VERTEX
  8
BOARD_GEOMETRY_DIMENSION
 10
31.000014
 20
101.102008
 40
0.000000
 41
0.000000
 42
0.000000
  0
VERTEX
  8
BOARD_GEOMETRY_DIMENSION
 10
35.000006
 20
101.727000
 40
0.000000
 41
0.000000
 42
0.000000
  0
VERTEX
  8
BOARD_GEOMETRY_DIMENSION
 10
31.000014
 20
102.351992
 40
0.000000
 41
0.000000
 42
0.000000
  0
SEQEND
  0
POLYLINE
  8
BOARD_GEOMETRY_DIMENSION
 66
1
 70
0
 40
0.000000
 41
0.000000
 39
0.000000
  0
VERTEX
  8
BOARD_GEOMETRY_DIMENSION
 10
35.426802
 20
101.727000
 40
0.000000
 41
0.000000
 42
0.000000
  0
VERTEX
  8
BOARD_GEOMETRY_DIMENSION
 10
35.000006
 20
101.727000
 40
0.000000
 41
0.000000
 42
0.000000
  0
SEQEND
  0
POLYLINE
  8
BOARD_GEOMETRY_DIMENSION
 66
1
 70
0
 40
0.000000
 41
0.000000
 39
0.000000
  0
VERTEX
  8
BOARD_GEOMETRY_DIMENSION
 10
42.999990
 20
101.770002
 40
0.000000
 41
0.000000
 42
0.000000
  0
VERTEX
  8
BOARD_GEOMETRY_DIMENSION
 10
42.999990
 20
104.226995
 40
0.000000
 41
0.000000
 42
0.000000
  0
SEQEND
  0
POLYLINE
  8
BOARD_GEOMETRY_DIMENSION
 66
1
 70
0
 40
0.000000
 41
0.000000
 39
0.000000
  0
VERTEX
  8
BOARD_GEOMETRY_DIMENSION
 10
35.000006
 20
101.770002
 40
0.000000
 41
0.000000
 42
0.000000
  0
VERTEX
  8
BOARD_GEOMETRY_DIMENSION
 10
35.000006
 20
104.226995
 40
0.000000
 41
0.000000
 42
0.000000
  0
SEQEND
  0
TEXT
  8
BOARD_GEOMETRY_DIMENSION
 10
37.808052
 20
100.139500
 11
0.000000
 21
0.000000
 40
3.175000
 41
0.991744
 50
0.000000
  7
STANDARD
 71
0
 72
0
  1
8
 73
0
  0
POLYLINE
  8
BOARD_GEOMETRY_DIMENSION
 66
1
 70
1
 40
0.000000
 41
0.000000
 39
0.000000
  0
VERTEX
  8
BOARD_GEOMETRY_DIMENSION
 10
12.500000
 20
57.160008
 40
0.000000
 41
0.000000
 42
0.000000
  0
VERTEX
  8
BOARD_GEOMETRY_DIMENSION
 10
16.499992
 20
57.785000
 40
0.000000
 41
0.000000
 42
0.000000
  0
VERTEX
  8
BOARD_GEOMETRY_DIMENSION
 10
12.500000
 20
58.409992
 40
0.000000
 41
0.000000
 42
0.000000
  0
SEQEND
  0
POLYLINE
  8
BOARD_GEOMETRY_DIMENSION
 66
1
 70
0
 40
0.000000
 41
0.000000
 39
0.000000
  0
VERTEX
  8
BOARD_GEOMETRY_DIMENSION
 10
15.270378
 20
57.785000
 40
0.000000
 41
0.000000
 42
0.000000
  0
VERTEX
  8
BOARD_GEOMETRY_DIMENSION
 10
16.499992
 20
57.785000
 40
0.000000
 41
0.000000
 42
0.000000
  0
SEQEND
  0
POLYLINE
  8
BOARD_GEOMETRY_DIMENSION
 66
1
 70
1
 40
0.000000
 41
0.000000
 39
0.000000
  0
VERTEX
  8
BOARD_GEOMETRY_DIMENSION
 10
3.999992
 20
58.409992
 40
0.000000
 41
0.000000
 42
0.000000
  0
VERTEX
  8
BOARD_GEOMETRY_DIMENSION
 10
0.000000
 20
57.785000
 40
0.000000
 41
0.000000
 42
0.000000
  0
VERTEX
  8
BOARD_GEOMETRY_DIMENSION
 10
3.999992
 20
57.160008
 40
0.000000
 41
0.000000
 42
0.000000
  0
SEQEND
  0
POLYLINE
  8
BOARD_GEOMETRY_DIMENSION
 66
1
 70
0
 40
0.000000
 41
0.000000
 39
0.000000
  0
VERTEX
  8
BOARD_GEOMETRY_DIMENSION
 10
-1.300378
 20
57.785000
 40
0.000000
 41
0.000000
 42
0.000000
  0
VERTEX
  8
BOARD_GEOMETRY_DIMENSION
 10
0.000000
 20
57.785000
 40
0.000000
 41
0.000000
 42
0.000000
  0
SEQEND
  0
POLYLINE
  8
BOARD_GEOMETRY_DIMENSION
 66
1
 70
0
 40
0.000000
 41
0.000000
 39
0.000000
  0
VERTEX
  8
BOARD_GEOMETRY_DIMENSION
 10
16.499992
 20
57.500012
 40
0.000000
 41
0.000000
 42
0.000000
  0
VERTEX
  8
BOARD_GEOMETRY_DIMENSION
 10
16.499992
 20
55.285005
 40
0.000000
 41
0.000000
 42
0.000000
  0
SEQEND
  0
POLYLINE
  8
BOARD_GEOMETRY_DIMENSION
 66
1
 70
0
 40
0.000000
 41
0.000000
 39
0.000000
  0
VERTEX
  8
BOARD_GEOMETRY_DIMENSION
 10
0.000000
 20
57.190005
 40
0.000000
 41
0.000000
 42
0.000000
  0
VERTEX
  8
BOARD_GEOMETRY_DIMENSION
 10
0.000000
 20
55.285005
 40
0.000000
 41
0.000000
 42
0.000000
  0
SEQEND
  0
TEXT
  8
BOARD_GEOMETRY_DIMENSION
 10
1.080872
 20
56.197500
 11
0.000000
 21
0.000000
 40
3.175000
 41
0.991744
 50
0.000000
  7
STANDARD
 71
0
 72
0
  1
16.5
 73
0
  0
POLYLINE
  8
BOARD_GEOMETRY_DIMENSION
 66
1
 70
1
 40
0.000000
 41
0.000000
 39
0.000000
  0
VERTEX
  8
BOARD_GEOMETRY_DIMENSION
 10
105.982008
 20
36.840008
 40
0.000000
 41
0.000000
 42
0.000000
  0
VERTEX
  8
BOARD_GEOMETRY_DIMENSION
 10
109.982000
 20
37.465000
 40
0.000000
 41
0.000000
 42
0.000000
  0
VERTEX
  8
BOARD_GEOMETRY_DIMENSION
 10
105.982008
 20
38.089992
 40
0.000000
 41
0.000000
 42
0.000000
  0
SEQEND
  0
POLYLINE
  8
BOARD_GEOMETRY_DIMENSION
 66
1
 70
0
 40
0.000000
 41
0.000000
 39
0.000000
  0
VERTEX
  8
BOARD_GEOMETRY_DIMENSION
 10
112.475772
 20
37.465000
 40
0.000000
 41
0.000000
 42
0.000000
  0
VERTEX
  8
BOARD_GEOMETRY_DIMENSION
 10
109.982000
 20
37.465000
 40
0.000000
 41
0.000000
 42
0.000000
  0
SEQEND
  0
POLYLINE
  8
BOARD_GEOMETRY_DIMENSION
 66
1
 70
1
 40
0.000000
 41
0.000000
 39
0.000000
  0
VERTEX
  8
BOARD_GEOMETRY_DIMENSION
 10
97.499983
 20
38.089992
 40
0.000000
 41
0.000000
 42
0.000000
  0
VERTEX
  8
BOARD_GEOMETRY_DIMENSION
 10
93.499991
 20
37.465000
 40
0.000000
 41
0.000000
 42
0.000000
  0
VERTEX
  8
BOARD_GEOMETRY_DIMENSION
 10
97.499983
 20
36.840008
 40
0.000000
 41
0.000000
 42
0.000000
  0
SEQEND
  0
POLYLINE
  8
BOARD_GEOMETRY_DIMENSION
 66
1
 70
0
 40
0.000000
 41
0.000000
 39
0.000000
  0
VERTEX
  8
BOARD_GEOMETRY_DIMENSION
 10
92.756228
 20
37.465000
 40
0.000000
 41
0.000000
 42
0.000000
  0
VERTEX
  8
BOARD_GEOMETRY_DIMENSION
 10
93.499991
 20
37.465000
 40
0.000000
 41
0.000000
 42
0.000000
  0
SEQEND
  0
POLYLINE
  8
BOARD_GEOMETRY_DIMENSION
 66
1
 70
0
 40
0.000000
 41
0.000000
 39
0.000000
  0
VERTEX
  8
BOARD_GEOMETRY_DIMENSION
 10
109.982000
 20
31.328995
 40
0.000000
 41
0.000000
 42
0.000000
  0
VERTEX
  8
BOARD_GEOMETRY_DIMENSION
 10
109.982000
 20
39.964995
 40
0.000000
 41
0.000000
 42
0.000000
  0
SEQEND
  0
POLYLINE
  8
BOARD_GEOMETRY_DIMENSION
 66
1
 70
0
 40
0.000000
 41
0.000000
 39
0.000000
  0
VERTEX
  8
BOARD_GEOMETRY_DIMENSION
 10
93.499991
 20
30.499990
 40
0.000000
 41
0.000000
 42
0.000000
  0
VERTEX
  8
BOARD_GEOMETRY_DIMENSION
 10
93.499991
 20
39.964995
 40
0.000000
 41
0.000000
 42
0.000000
  0
SEQEND
  0
TEXT
  8
BOARD_GEOMETRY_DIMENSION
 10
95.137478
 20
35.877500
 11
0.000000
 21
0.000000
 40
3.175000
 41
0.991744
 50
0.000000
  7
STANDARD
 71
0
 72
0
  1
16.48
 73
0
  0
POLYLINE
  8
BOARD_GEOMETRY_DIMENSION
 66
1
 70
1
 40
0.000000
 41
0.000000
 39
0.000000
  0
VERTEX
  8
BOARD_GEOMETRY_DIMENSION
 10
124.068992
 20
121.000012
 40
0.000000
 41
0.000000
 42
0.000000
  0
VERTEX
  8
BOARD_GEOMETRY_DIMENSION
 10
123.444000
 20
125.000004
 40
0.000000
 41
0.000000
 42
0.000000
  0
VERTEX
  8
BOARD_GEOMETRY_DIMENSION
 10
122.819008
 20
121.000012
 40
0.000000
 41
0.000000
 42
0.000000
  0
SEQEND
  0
POLYLINE
  8
BOARD_GEOMETRY_DIMENSION
 66
1
 70
0
 40
0.000000
 41
0.000000
 39
0.000000
  0
VERTEX
  8
BOARD_GEOMETRY_DIMENSION
 10
123.444000
 20
65.563750
 40
0.000000
 41
0.000000
 42
0.000000
  0
VERTEX
  8
BOARD_GEOMETRY_DIMENSION
 10
123.444000
 20
125.000004
 40
0.000000
 41
0.000000
 42
0.000000
  0
SEQEND
  0
POLYLINE
  8
BOARD_GEOMETRY_DIMENSION
 66
1
 70
1
 40
0.000000
 41
0.000000
 39
0.000000
  0
VERTEX
  8
BOARD_GEOMETRY_DIMENSION
 10
122.819008
 20
8.999982
 40
0.000000
 41
0.000000
 42
0.000000
  0
VERTEX
  8
BOARD_GEOMETRY_DIMENSION
 10
123.444000
 20
4.999990
 40
0.000000
 41
0.000000
 42
0.000000
  0
VERTEX
  8
BOARD_GEOMETRY_DIMENSION
 10
124.068992
 20
8.999982
 40
0.000000
 41
0.000000
 42
0.000000
  0
SEQEND
  0
POLYLINE
  8
BOARD_GEOMETRY_DIMENSION
 66
1
 70
0
 40
0.000000
 41
0.000000
 39
0.000000
  0
VERTEX
  8
BOARD_GEOMETRY_DIMENSION
 10
123.444000
 20
57.626250
 40
0.000000
 41
0.000000
 42
0.000000
  0
VERTEX
  8
BOARD_GEOMETRY_DIMENSION
 10
123.444000
 20
4.999990
 40
0.000000
 41
0.000000
 42
0.000000
  0
SEQEND
  0
POLYLINE
  8
BOARD_GEOMETRY_DIMENSION
 66
1
 70
0
 40
0.000000
 41
0.000000
 39
0.000000
  0
VERTEX
  8
BOARD_GEOMETRY_DIMENSION
 10
107.499988
 20
4.999990
 40
0.000000
 41
0.000000
 42
0.000000
  0
VERTEX
  8
BOARD_GEOMETRY_DIMENSION
 10
125.943995
 20
4.999990
 40
0.000000
 41
0.000000
 42
0.000000
  0
SEQEND
  0
POLYLINE
  8
BOARD_GEOMETRY_DIMENSION
 66
1
 70
0
 40
0.000000
 41
0.000000
 39
0.000000
  0
VERTEX
  8
BOARD_GEOMETRY_DIMENSION
 10
107.499988
 20
125.000004
 40
0.000000
 41
0.000000
 42
0.000000
  0
VERTEX
  8
BOARD_GEOMETRY_DIMENSION
 10
125.943995
 20
125.000004
 40
0.000000
 41
0.000000
 42
0.000000
  0
SEQEND
  0
TEXT
  8
BOARD_GEOMETRY_DIMENSION
 10
119.114265
 20
60.007500
 11
0.000000
 21
0.000000
 40
3.175000
 41
0.991744
 50
0.000000
  7
STANDARD
 71
0
 72
0
  1
120
 73
0
  0
POLYLINE
  8
BOARD_GEOMETRY_DIMENSION
 66
1
 70
1
 40
0.000000
 41
0.000000
 39
0.000000
  0
VERTEX
  8
BOARD_GEOMETRY_DIMENSION
 10
101.000001
 20
-25.770992
 40
0.000000
 41
0.000000
 42
0.000000
  0
VERTEX
  8
BOARD_GEOMETRY_DIMENSION
 10
104.999993
 20
-25.146000
 40
0.000000
 41
0.000000
 42
0.000000
  0
VERTEX
  8
BOARD_GEOMETRY_DIMENSION
 10
101.000001
 20
-24.521008
 40
0.000000
 41
0.000000
 42
0.000000
  0
SEQEND
  0
POLYLINE
  8
BOARD_GEOMETRY_DIMENSION
 66
1
 70
0
 40
0.000000
 41
0.000000
 39
0.000000
  0
VERTEX
  8
BOARD_GEOMETRY_DIMENSION
 10
61.701985
 20
-25.146000
 40
0.000000
 41
0.000000
 42
0.000000
  0
VERTEX
  8
BOARD_GEOMETRY_DIMENSION
 10
104.999993
 20
-25.146000
 40
0.000000
 41
0.000000
 42
0.000000
  0
SEQEND
  0
POLYLINE
  8
BOARD_GEOMETRY_DIMENSION
 66
1
 70
1
 40
0.000000
 41
0.000000
 39
0.000000
  0
VERTEX
  8
BOARD_GEOMETRY_DIMENSION
 10
8.999982
 20
-24.521008
 40
0.000000
 41
0.000000
 42
0.000000
  0
VERTEX
  8
BOARD_GEOMETRY_DIMENSION
 10
4.999990
 20
-25.146000
 40
0.000000
 41
0.000000
 42
0.000000
  0
VERTEX
  8
BOARD_GEOMETRY_DIMENSION
 10
8.999982
 20
-25.770992
 40
0.000000
 41
0.000000
 42
0.000000
  0
SEQEND
  0
POLYLINE
  8
BOARD_GEOMETRY_DIMENSION
 66
1
 70
0
 40
0.000000
 41
0.000000
 39
0.000000
  0
VERTEX
  8
BOARD_GEOMETRY_DIMENSION
 10
48.280015
 20
-25.146000
 40
0.000000
 41
0.000000
 42
0.000000
  0
VERTEX
  8
BOARD_GEOMETRY_DIMENSION
 10
4.999990
 20
-25.146000
 40
0.000000
 41
0.000000
 42
0.000000
  0
SEQEND
  0
POLYLINE
  8
BOARD_GEOMETRY_DIMENSION
 66
1
 70
0
 40
0.000000
 41
0.000000
 39
0.000000
  0
VERTEX
  8
BOARD_GEOMETRY_DIMENSION
 10
104.999993
 20
2.499995
 40
0.000000
 41
0.000000
 42
0.000000
  0
VERTEX
  8
BOARD_GEOMETRY_DIMENSION
 10
104.999993
 20
-27.645995
 40
0.000000
 41
0.000000
 42
0.000000
  0
SEQEND
  0
POLYLINE
  8
BOARD_GEOMETRY_DIMENSION
 66
1
 70
0
 40
0.000000
 41
0.000000
 39
0.000000
  0
VERTEX
  8
BOARD_GEOMETRY_DIMENSION
 10
4.999990
 20
2.499995
 40
0.000000
 41
0.000000
 42
0.000000
  0
VERTEX
  8
BOARD_GEOMETRY_DIMENSION
 10
4.999990
 20
-27.645995
 40
0.000000
 41
0.000000
 42
0.000000
  0
SEQEND
  0
TEXT
  8
BOARD_GEOMETRY_DIMENSION
 10
50.661265
 20
-26.733500
 11
0.000000
 21
0.000000
 40
3.175000
 41
0.991744
 50
0.000000
  7
STANDARD
 71
0
 72
0
  1
100
 73
0
  0
POLYLINE
  8
BOARD_GEOMETRY_DIMENSION
 66
1
 70
1
 40
0.000000
 41
0.000000
 39
0.000000
  0
VERTEX
  8
BOARD_GEOMETRY_DIMENSION
 10
88.500001
 20
-7.482992
 40
0.000000
 41
0.000000
 42
0.000000
  0
VERTEX
  8
BOARD_GEOMETRY_DIMENSION
 10
92.499993
 20
-6.858000
 40
0.000000
 41
0.000000
 42
0.000000
  0
VERTEX
  8
BOARD_GEOMETRY_DIMENSION
 10
88.500001
 20
-6.233008
 40
0.000000
 41
0.000000
 42
0.000000
  0
SEQEND
  0
POLYLINE
  8
BOARD_GEOMETRY_DIMENSION
 66
1
 70
0
 40
0.000000
 41
0.000000
 39
0.000000
  0
VERTEX
  8
BOARD_GEOMETRY_DIMENSION
 10
91.369591
 20
-6.858000
 40
0.000000
 41
0.000000
 42
0.000000
  0
VERTEX
  8
BOARD_GEOMETRY_DIMENSION
 10
92.499993
 20
-6.858000
 40
0.000000
 41
0.000000
 42
0.000000
  0
SEQEND
  0
POLYLINE
  8
BOARD_GEOMETRY_DIMENSION
 66
1
 70
1
 40
0.000000
 41
0.000000
 39
0.000000
  0
VERTEX
  8
BOARD_GEOMETRY_DIMENSION
 10
81.499989
 20
-6.233008
 40
0.000000
 41
0.000000
 42
0.000000
  0
VERTEX
  8
BOARD_GEOMETRY_DIMENSION
 10
77.499997
 20
-6.858000
 40
0.000000
 41
0.000000
 42
0.000000
  0
VERTEX
  8
BOARD_GEOMETRY_DIMENSION
 10
81.499989
 20
-7.482992
 40
0.000000
 41
0.000000
 42
0.000000
  0
SEQEND
  0
POLYLINE
  8
BOARD_GEOMETRY_DIMENSION
 66
1
 70
0
 40
0.000000
 41
0.000000
 39
0.000000
  0
VERTEX
  8
BOARD_GEOMETRY_DIMENSION
 10
81.096409
 20
-6.858000
 40
0.000000
 41
0.000000
 42
0.000000
  0
VERTEX
  8
BOARD_GEOMETRY_DIMENSION
 10
77.499997
 20
-6.858000
 40
0.000000
 41
0.000000
 42
0.000000
  0
SEQEND
  0
POLYLINE
  8
BOARD_GEOMETRY_DIMENSION
 66
1
 70
0
 40
0.000000
 41
0.000000
 39
0.000000
  0
VERTEX
  8
BOARD_GEOMETRY_DIMENSION
 10
92.499993
 20
5.999988
 40
0.000000
 41
0.000000
 42
0.000000
  0
VERTEX
  8
BOARD_GEOMETRY_DIMENSION
 10
92.499993
 20
-9.357995
 40
0.000000
 41
0.000000
 42
0.000000
  0
SEQEND
  0
POLYLINE
  8
BOARD_GEOMETRY_DIMENSION
 66
1
 70
0
 40
0.000000
 41
0.000000
 39
0.000000
  0
VERTEX
  8
BOARD_GEOMETRY_DIMENSION
 10
77.499997
 20
5.999988
 40
0.000000
 41
0.000000
 42
0.000000
  0
VERTEX
  8
BOARD_GEOMETRY_DIMENSION
 10
77.499997
 20
-9.357995
 40
0.000000
 41
0.000000
 42
0.000000
  0
SEQEND
  0
TEXT
  8
BOARD_GEOMETRY_DIMENSION
 10
83.477659
 20
-8.445500
 11
0.000000
 21
0.000000
 40
3.175000
 41
0.991744
 50
0.000000
  7
STANDARD
 71
0
 72
0
  1
15
 73
0
  0
POLYLINE
  8
BOARD_GEOMETRY_DIMENSION
 66
1
 70
1
 40
0.000000
 41
0.000000
 39
0.000000
  0
VERTEX
  8
BOARD_GEOMETRY_DIMENSION
 10
73.500005
 20
-11.800992
 40
0.000000
 41
0.000000
 42
0.000000
  0
VERTEX
  8
BOARD_GEOMETRY_DIMENSION
 10
77.499997
 20
-11.176000
 40
0.000000
 41
0.000000
 42
0.000000
  0
VERTEX
  8
BOARD_GEOMETRY_DIMENSION
 10
73.500005
 20
-10.551008
 40
0.000000
 41
0.000000
 42
0.000000
  0
SEQEND
  0
POLYLINE
  8
BOARD_GEOMETRY_DIMENSION
 66
1
 70
0
 40
0.000000
 41
0.000000
 39
0.000000
  0
VERTEX
  8
BOARD_GEOMETRY_DIMENSION
 10
74.605591
 20
-11.176000
 40
0.000000
 41
0.000000
 42
0.000000
  0
VERTEX
  8
BOARD_GEOMETRY_DIMENSION
 10
77.499997
 20
-11.176000
 40
0.000000
 41
0.000000
 42
0.000000
  0
SEQEND
  0
POLYLINE
  8
BOARD_GEOMETRY_DIMENSION
 66
1
 70
1
 40
0.000000
 41
0.000000
 39
0.000000
  0
VERTEX
  8
BOARD_GEOMETRY_DIMENSION
 10
66.499969
 20
-10.551008
 40
0.000000
 41
0.000000
 42
0.000000
  0
VERTEX
  8
BOARD_GEOMETRY_DIMENSION
 10
62.499977
 20
-11.176000
 40
0.000000
 41
0.000000
 42
0.000000
  0
VERTEX
  8
BOARD_GEOMETRY_DIMENSION
 10
66.499969
 20
-11.800992
 40
0.000000
 41
0.000000
 42
0.000000
  0
SEQEND
  0
POLYLINE
  8
BOARD_GEOMETRY_DIMENSION
 66
1
 70
0
 40
0.000000
 41
0.000000
 39
0.000000
  0
VERTEX
  8
BOARD_GEOMETRY_DIMENSION
 10
64.332409
 20
-11.176000
 40
0.000000
 41
0.000000
 42
0.000000
  0
VERTEX
  8
BOARD_GEOMETRY_DIMENSION
 10
62.499977
 20
-11.176000
 40
0.000000
 41
0.000000
 42
0.000000
  0
SEQEND
  0
POLYLINE
  8
BOARD_GEOMETRY_DIMENSION
 66
1
 70
0
 40
0.000000
 41
0.000000
 39
0.000000
  0
VERTEX
  8
BOARD_GEOMETRY_DIMENSION
 10
77.499997
 20
5.999988
 40
0.000000
 41
0.000000
 42
0.000000
  0
VERTEX
  8
BOARD_GEOMETRY_DIMENSION
 10
77.499997
 20
-13.675995
 40
0.000000
 41
0.000000
 42
0.000000
  0
SEQEND
  0
POLYLINE
  8
BOARD_GEOMETRY_DIMENSION
 66
1
 70
0
 40
0.000000
 41
0.000000
 39
0.000000
  0
VERTEX
  8
BOARD_GEOMETRY_DIMENSION
 10
62.499977
 20
5.999988
 40
0.000000
 41
0.000000
 42
0.000000
  0
VERTEX
  8
BOARD_GEOMETRY_DIMENSION
 10
62.499977
 20
-13.675995
 40
0.000000
 41
0.000000
 42
0.000000
  0
SEQEND
  0
TEXT
  8
BOARD_GEOMETRY_DIMENSION
 10
66.713659
 20
-12.763500
 11
0.000000
 21
0.000000
 40
3.175000
 41
0.991744
 50
0.000000
  7
STANDARD
 71
0
 72
0
  1
15
 73
0
  0
POLYLINE
  8
BOARD_GEOMETRY_DIMENSION
 66
1
 70
1
 40
0.000000
 41
0.000000
 39
0.000000
  0
VERTEX
  8
BOARD_GEOMETRY_DIMENSION
 10
58.499985
 20
-5.323992
 40
0.000000
 41
0.000000
 42
0.000000
  0
VERTEX
  8
BOARD_GEOMETRY_DIMENSION
 10
62.499977
 20
-4.699000
 40
0.000000
 41
0.000000
 42
0.000000
  0
VERTEX
  8
BOARD_GEOMETRY_DIMENSION
 10
58.499985
 20
-4.074008
 40
0.000000
 41
0.000000
 42
0.000000
  0
SEQEND
  0
POLYLINE
  8
BOARD_GEOMETRY_DIMENSION
 66
1
 70
0
 40
0.000000
 41
0.000000
 39
0.000000
  0
VERTEX
  8
BOARD_GEOMETRY_DIMENSION
 10
59.746591
 20
-4.699000
 40
0.000000
 41
0.000000
 42
0.000000
  0
VERTEX
  8
BOARD_GEOMETRY_DIMENSION
 10
62.499977
 20
-4.699000
 40
0.000000
 41
0.000000
 42
0.000000
  0
SEQEND
  0
POLYLINE
  8
BOARD_GEOMETRY_DIMENSION
 66
1
 70
1
 40
0.000000
 41
0.000000
 39
0.000000
  0
VERTEX
  8
BOARD_GEOMETRY_DIMENSION
 10
51.499973
 20
-4.074008
 40
0.000000
 41
0.000000
 42
0.000000
  0
VERTEX
  8
BOARD_GEOMETRY_DIMENSION
 10
47.499981
 20
-4.699000
 40
0.000000
 41
0.000000
 42
0.000000
  0
VERTEX
  8
BOARD_GEOMETRY_DIMENSION
 10
51.499973
 20
-5.323992
 40
0.000000
 41
0.000000
 42
0.000000
  0
SEQEND
  0
POLYLINE
  8
BOARD_GEOMETRY_DIMENSION
 66
1
 70
0
 40
0.000000
 41
0.000000
 39
0.000000
  0
VERTEX
  8
BOARD_GEOMETRY_DIMENSION
 10
49.473409
 20
-4.699000
 40
0.000000
 41
0.000000
 42
0.000000
  0
VERTEX
  8
BOARD_GEOMETRY_DIMENSION
 10
47.499981
 20
-4.699000
 40
0.000000
 41
0.000000
 42
0.000000
  0
SEQEND
  0
POLYLINE
  8
BOARD_GEOMETRY_DIMENSION
 66
1
 70
0
 40
0.000000
 41
0.000000
 39
0.000000
  0
VERTEX
  8
BOARD_GEOMETRY_DIMENSION
 10
62.499977
 20
5.999988
 40
0.000000
 41
0.000000
 42
0.000000
  0
VERTEX
  8
BOARD_GEOMETRY_DIMENSION
 10
62.499977
 20
-7.198995
 40
0.000000
 41
0.000000
 42
0.000000
  0
SEQEND
  0
POLYLINE
  8
BOARD_GEOMETRY_DIMENSION
 66
1
 70
0
 40
0.000000
 41
0.000000
 39
0.000000
  0
VERTEX
  8
BOARD_GEOMETRY_DIMENSION
 10
47.499981
 20
5.999988
 40
0.000000
 41
0.000000
 42
0.000000
  0
VERTEX
  8
BOARD_GEOMETRY_DIMENSION
 10
47.499981
 20
-7.198995
 40
0.000000
 41
0.000000
 42
0.000000
  0
SEQEND
  0
TEXT
  8
BOARD_GEOMETRY_DIMENSION
 10
51.854659
 20
-6.286500
 11
0.000000
 21
0.000000
 40
3.175000
 41
0.991744
 50
0.000000
  7
STANDARD
 71
0
 72
0
  1
15
 73
0
  0
POLYLINE
  8
BOARD_GEOMETRY_DIMENSION
 66
1
 70
1
 40
0.000000
 41
0.000000
 39
0.000000
  0
VERTEX
  8
BOARD_GEOMETRY_DIMENSION
 10
43.499989
 20
-10.276992
 40
0.000000
 41
0.000000
 42
0.000000
  0
VERTEX
  8
BOARD_GEOMETRY_DIMENSION
 10
47.499981
 20
-9.652000
 40
0.000000
 41
0.000000
 42
0.000000
  0
VERTEX
  8
BOARD_GEOMETRY_DIMENSION
 10
43.499989
 20
-9.027008
 40
0.000000
 41
0.000000
 42
0.000000
  0
SEQEND
  0
POLYLINE
  8
BOARD_GEOMETRY_DIMENSION
 66
1
 70
0
 40
0.000000
 41
0.000000
 39
0.000000
  0
VERTEX
  8
BOARD_GEOMETRY_DIMENSION
 10
44.506591
 20
-9.652000
 40
0.000000
 41
0.000000
 42
0.000000
  0
VERTEX
  8
BOARD_GEOMETRY_DIMENSION
 10
47.499981
 20
-9.652000
 40
0.000000
 41
0.000000
 42
0.000000
  0
SEQEND
  0
POLYLINE
  8
BOARD_GEOMETRY_DIMENSION
 66
1
 70
1
 40
0.000000
 41
0.000000
 39
0.000000
  0
VERTEX
  8
BOARD_GEOMETRY_DIMENSION
 10
36.499978
 20
-9.027008
 40
0.000000
 41
0.000000
 42
0.000000
  0
VERTEX
  8
BOARD_GEOMETRY_DIMENSION
 10
32.499986
 20
-9.652000
 40
0.000000
 41
0.000000
 42
0.000000
  0
VERTEX
  8
BOARD_GEOMETRY_DIMENSION
 10
36.499978
 20
-10.276992
 40
0.000000
 41
0.000000
 42
0.000000
  0
SEQEND
  0
POLYLINE
  8
BOARD_GEOMETRY_DIMENSION
 66
1
 70
0
 40
0.000000
 41
0.000000
 39
0.000000
  0
VERTEX
  8
BOARD_GEOMETRY_DIMENSION
 10
34.233409
 20
-9.652000
 40
0.000000
 41
0.000000
 42
0.000000
  0
VERTEX
  8
BOARD_GEOMETRY_DIMENSION
 10
32.499986
 20
-9.652000
 40
0.000000
 41
0.000000
 42
0.000000
  0
SEQEND
  0
POLYLINE
  8
BOARD_GEOMETRY_DIMENSION
 66
1
 70
0
 40
0.000000
 41
0.000000
 39
0.000000
  0
VERTEX
  8
BOARD_GEOMETRY_DIMENSION
 10
47.499981
 20
5.999988
 40
0.000000
 41
0.000000
 42
0.000000
  0
VERTEX
  8
BOARD_GEOMETRY_DIMENSION
 10
47.499981
 20
-12.151995
 40
0.000000
 41
0.000000
 42
0.000000
  0
SEQEND
  0
POLYLINE
  8
BOARD_GEOMETRY_DIMENSION
 66
1
 70
0
 40
0.000000
 41
0.000000
 39
0.000000
  0
VERTEX
  8
BOARD_GEOMETRY_DIMENSION
 10
32.499986
 20
5.999988
 40
0.000000
 41
0.000000
 42
0.000000
  0
VERTEX
  8
BOARD_GEOMETRY_DIMENSION
 10
32.499986
 20
-12.151995
 40
0.000000
 41
0.000000
 42
0.000000
  0
SEQEND
  0
TEXT
  8
BOARD_GEOMETRY_DIMENSION
 10
36.614659
 20
-11.239500
 11
0.000000
 21
0.000000
 40
3.175000
 41
0.991744
 50
0.000000
  7
STANDARD
 71
0
 72
0
  1
15
 73
0
  0
POLYLINE
  8
BOARD_GEOMETRY_DIMENSION
 66
1
 70
1
 40
0.000000
 41
0.000000
 39
0.000000
  0
VERTEX
  8
BOARD_GEOMETRY_DIMENSION
 10
28.499994
 20
-4.942992
 40
0.000000
 41
0.000000
 42
0.000000
  0
VERTEX
  8
BOARD_GEOMETRY_DIMENSION
 10
32.499986
 20
-4.318000
 40
0.000000
 41
0.000000
 42
0.000000
  0
VERTEX
  8
BOARD_GEOMETRY_DIMENSION
 10
28.499994
 20
-3.693008
 40
0.000000
 41
0.000000
 42
0.000000
  0
SEQEND
  0
POLYLINE
  8
BOARD_GEOMETRY_DIMENSION
 66
1
 70
0
 40
0.000000
 41
0.000000
 39
0.000000
  0
VERTEX
  8
BOARD_GEOMETRY_DIMENSION
 10
30.282591
 20
-4.318000
 40
0.000000
 41
0.000000
 42
0.000000
  0
VERTEX
  8
BOARD_GEOMETRY_DIMENSION
 10
32.499986
 20
-4.318000
 40
0.000000
 41
0.000000
 42
0.000000
  0
SEQEND
  0
POLYLINE
  8
BOARD_GEOMETRY_DIMENSION
 66
1
 70
1
 40
0.000000
 41
0.000000
 39
0.000000
  0
VERTEX
  8
BOARD_GEOMETRY_DIMENSION
 10
21.499982
 20
-3.693008
 40
0.000000
 41
0.000000
 42
0.000000
  0
VERTEX
  8
BOARD_GEOMETRY_DIMENSION
 10
17.499990
 20
-4.318000
 40
0.000000
 41
0.000000
 42
0.000000
  0
VERTEX
  8
BOARD_GEOMETRY_DIMENSION
 10
21.499982
 20
-4.942992
 40
0.000000
 41
0.000000
 42
0.000000
  0
SEQEND
  0
POLYLINE
  8
BOARD_GEOMETRY_DIMENSION
 66
1
 70
0
 40
0.000000
 41
0.000000
 39
0.000000
  0
VERTEX
  8
BOARD_GEOMETRY_DIMENSION
 10
20.009409
 20
-4.318000
 40
0.000000
 41
0.000000
 42
0.000000
  0
VERTEX
  8
BOARD_GEOMETRY_DIMENSION
 10
17.499990
 20
-4.318000
 40
0.000000
 41
0.000000
 42
0.000000
  0
SEQEND
  0
POLYLINE
  8
BOARD_GEOMETRY_DIMENSION
 66
1
 70
0
 40
0.000000
 41
0.000000
 39
0.000000
  0
VERTEX
  8
BOARD_GEOMETRY_DIMENSION
 10
32.499986
 20
5.999988
 40
0.000000
 41
0.000000
 42
0.000000
  0
VERTEX
  8
BOARD_GEOMETRY_DIMENSION
 10
32.499986
 20
-6.817995
 40
0.000000
 41
0.000000
 42
0.000000
  0
SEQEND
  0
POLYLINE
  8
BOARD_GEOMETRY_DIMENSION
 66
1
 70
0
 40
0.000000
 41
0.000000
 39
0.000000
  0
VERTEX
  8
BOARD_GEOMETRY_DIMENSION
 10
17.499990
 20
5.999988
 40
0.000000
 41
0.000000
 42
0.000000
  0
VERTEX
  8
BOARD_GEOMETRY_DIMENSION
 10
17.499990
 20
-6.817995
 40
0.000000
 41
0.000000
 42
0.000000
  0
SEQEND
  0
TEXT
  8
BOARD_GEOMETRY_DIMENSION
 10
22.390659
 20
-5.905500
 11
0.000000
 21
0.000000
 40
3.175000
 41
0.991744
 50
0.000000
  7
STANDARD
 71
0
 72
0
  1
15
 73
0
  0
POLYLINE
  8
BOARD_GEOMETRY_DIMENSION
 66
1
 70
1
 40
0.000000
 41
0.000000
 39
0.000000
  0
VERTEX
  8
BOARD_GEOMETRY_DIMENSION
 10
105.999991
 20
137.678008
 40
0.000000
 41
0.000000
 42
0.000000
  0
VERTEX
  8
BOARD_GEOMETRY_DIMENSION
 10
110.000009
 20
138.303000
 40
0.000000
 41
0.000000
 42
0.000000
  0
VERTEX
  8
BOARD_GEOMETRY_DIMENSION
 10
105.999991
 20
138.927992
 40
0.000000
 41
0.000000
 42
0.000000
  0
SEQEND
  0
POLYLINE
  8
BOARD_GEOMETRY_DIMENSION
 66
1
 70
0
 40
0.000000
 41
0.000000
 39
0.000000
  0
VERTEX
  8
BOARD_GEOMETRY_DIMENSION
 10
62.209909
 20
138.303000
 40
0.000000
 41
0.000000
 42
0.000000
  0
VERTEX
  8
BOARD_GEOMETRY_DIMENSION
 10
110.000009
 20
138.303000
 40
0.000000
 41
0.000000
 42
0.000000
  0
SEQEND
  0
POLYLINE
  8
BOARD_GEOMETRY_DIMENSION
 66
1
 70
1
 40
0.000000
 41
0.000000
 39
0.000000
  0
VERTEX
  8
BOARD_GEOMETRY_DIMENSION
 10
3.999992
 20
138.927992
 40
0.000000
 41
0.000000
 42
0.000000
  0
VERTEX
  8
BOARD_GEOMETRY_DIMENSION
 10
0.000000
 20
138.303000
 40
0.000000
 41
0.000000
 42
0.000000
  0
VERTEX
  8
BOARD_GEOMETRY_DIMENSION
 10
3.999992
 20
137.678008
 40
0.000000
 41
0.000000
 42
0.000000
  0
SEQEND
  0
POLYLINE
  8
BOARD_GEOMETRY_DIMENSION
 66
1
 70
0
 40
0.000000
 41
0.000000
 39
0.000000
  0
VERTEX
  8
BOARD_GEOMETRY_DIMENSION
 10
48.788091
 20
138.303000
 40
0.000000
 41
0.000000
 42
0.000000
  0
VERTEX
  8
BOARD_GEOMETRY_DIMENSION
 10
0.000000
 20
138.303000
 40
0.000000
 41
0.000000
 42
0.000000
  0
SEQEND
  0
POLYLINE
  8
BOARD_GEOMETRY_DIMENSION
 66
1
 70
0
 40
0.000000
 41
0.000000
 39
0.000000
  0
VERTEX
  8
BOARD_GEOMETRY_DIMENSION
 10
110.000009
 20
132.499989
 40
0.000000
 41
0.000000
 42
0.000000
  0
VERTEX
  8
BOARD_GEOMETRY_DIMENSION
 10
110.000009
 20
140.802995
 40
0.000000
 41
0.000000
 42
0.000000
  0
SEQEND
  0
POLYLINE
  8
BOARD_GEOMETRY_DIMENSION
 66
1
 70
0
 40
0.000000
 41
0.000000
 39
0.000000
  0
VERTEX
  8
BOARD_GEOMETRY_DIMENSION
 10
0.000000
 20
132.499989
 40
0.000000
 41
0.000000
 42
0.000000
  0
VERTEX
  8
BOARD_GEOMETRY_DIMENSION
 10
0.000000
 20
140.802995
 40
0.000000
 41
0.000000
 42
0.000000
  0
SEQEND
  0
TEXT
  8
BOARD_GEOMETRY_DIMENSION
 10
51.169189
 20
136.715500
 11
0.000000
 21
0.000000
 40
3.175000
 41
0.991744
 50
0.000000
  7
STANDARD
 71
0
 72
0
  1
110
 73
0
  0
POLYLINE
  8
BOARD_GEOMETRY_DIMENSION
 66
1
 70
1
 40
0.000000
 41
0.000000
 39
0.000000
  0
VERTEX
  8
BOARD_GEOMETRY_DIMENSION
 10
-9.154008
 20
126.000002
 40
0.000000
 41
0.000000
 42
0.000000
  0
VERTEX
  8
BOARD_GEOMETRY_DIMENSION
 10
-9.779000
 20
129.999994
 40
0.000000
 41
0.000000
 42
0.000000
  0
VERTEX
  8
BOARD_GEOMETRY_DIMENSION
 10
-10.403992
 20
126.000002
 40
0.000000
 41
0.000000
 42
0.000000
  0
SEQEND
  0
POLYLINE
  8
BOARD_GEOMETRY_DIMENSION
 66
1
 70
0
 40
0.000000
 41
0.000000
 39
0.000000
  0
VERTEX
  8
BOARD_GEOMETRY_DIMENSION
 10
-9.779000
 20
73.818699
 40
0.000000
 41
0.000000
 42
0.000000
  0
VERTEX
  8
BOARD_GEOMETRY_DIMENSION
 10
-9.779000
 20
129.999994
 40
0.000000
 41
0.000000
 42
0.000000
  0
SEQEND
  0
POLYLINE
  8
BOARD_GEOMETRY_DIMENSION
 66
1
 70
1
 40
0.000000
 41
0.000000
 39
0.000000
  0
VERTEX
  8
BOARD_GEOMETRY_DIMENSION
 10
-10.403992
 20
3.999992
 40
0.000000
 41
0.000000
 42
0.000000
  0
VERTEX
  8
BOARD_GEOMETRY_DIMENSION
 10
-9.779000
 20
0.000000
 40
0.000000
 41
0.000000
 42
0.000000
  0
VERTEX
  8
BOARD_GEOMETRY_DIMENSION
 10
-9.154008
 20
3.999992
 40
0.000000
 41
0.000000
 42
0.000000
  0
SEQEND
  0
POLYLINE
  8
BOARD_GEOMETRY_DIMENSION
 66
1
 70
0
 40
0.000000
 41
0.000000
 39
0.000000
  0
VERTEX
  8
BOARD_GEOMETRY_DIMENSION
 10
-9.779000
 20
65.881301
 40
0.000000
 41
0.000000
 42
0.000000
  0
VERTEX
  8
BOARD_GEOMETRY_DIMENSION
 10
-9.779000
 20
0.000000
 40
0.000000
 41
0.000000
 42
0.000000
  0
SEQEND
  0
POLYLINE
  8
BOARD_GEOMETRY_DIMENSION
 66
1
 70
0
 40
0.000000
 41
0.000000
 39
0.000000
  0
VERTEX
  8
BOARD_GEOMETRY_DIMENSION
 10
-2.499995
 20
0.000000
 40
0.000000
 41
0.000000
 42
0.000000
  0
VERTEX
  8
BOARD_GEOMETRY_DIMENSION
 10
-12.278995
 20
0.000000
 40
0.000000
 41
0.000000
 42
0.000000
  0
SEQEND
  0
POLYLINE
  8
BOARD_GEOMETRY_DIMENSION
 66
1
 70
0
 40
0.000000
 41
0.000000
 39
0.000000
  0
VERTEX
  8
BOARD_GEOMETRY_DIMENSION
 10
-2.499995
 20
129.999994
 40
0.000000
 41
0.000000
 42
0.000000
  0
VERTEX
  8
BOARD_GEOMETRY_DIMENSION
 10
-12.278995
 20
129.999994
 40
0.000000
 41
0.000000
 42
0.000000
  0
SEQEND
  0
TEXT
  8
BOARD_GEOMETRY_DIMENSION
 10
-14.108811
 20
68.262500
 11
0.000000
 21
0.000000
 40
3.175000
 41
0.991744
 50
0.000000
  7
STANDARD
 71
0
 72
0
  1
130
 73
0
  0
POLYLINE
  8
PIN_TOP
 66
1
 70
1
 40
0.000000
 41
0.000000
 39
0.000000
  0
VERTEX
  8
PIN_TOP
 10
95.253988
 20
13.734009
 40
0.000000
 41
0.000000
 42
0.000000
  0
VERTEX
  8
PIN_TOP
 10
94.745988
 20
13.734009
 40
0.000000
 41
0.000000
 42
-1.000000
  0
VERTEX
  8
PIN_TOP
 10
94.745988
 20
15.766009
 40
0.000000
 41
0.000000
 42
0.000000
  0
VERTEX
  8
PIN_TOP
 10
95.253988
 20
15.766009
 40
0.000000
 41
0.000000
 42
-1.000000
  0
SEQEND
  0
POLYLINE
  8
PIN_TOP
 66
1
 70
1
 40
0.000000
 41
0.000000
 39
0.000000
  0
VERTEX
  8
PIN_TOP
 10
90.253998
 20
1.234008
 40
0.000000
 41
0.000000
 42
0.000000
  0
VERTEX
  8
PIN_TOP
 10
89.745998
 20
1.234008
 40
0.000000
 41
0.000000
 42
-1.000000
  0
VERTEX
  8
PIN_TOP
 10
89.745998
 20
3.266008
 40
0.000000
 41
0.000000
 42
0.000000
  0
VERTEX
  8
PIN_TOP
 10
90.253998
 20
3.266008
 40
0.000000
 41
0.000000
 42
-1.000000
  0
SEQEND
  0
POLYLINE
  8
PIN_TOP
 66
1
 70
1
 40
0.000000
 41
0.000000
 39
0.000000
  0
VERTEX
  8
PIN_TOP
 10
90.253998
 20
13.734009
 40
0.000000
 41
0.000000
 42
0.000000
  0
VERTEX
  8
PIN_TOP
 10
89.745998
 20
13.734009
 40
0.000000
 41
0.000000
 42
-1.000000
  0
VERTEX
  8
PIN_TOP
 10
89.745998
 20
15.766009
 40
0.000000
 41
0.000000
 42
0.000000
  0
VERTEX
  8
PIN_TOP
 10
90.253998
 20
15.766009
 40
0.000000
 41
0.000000
 42
-1.000000
  0
SEQEND
  0
POLYLINE
  8
PIN_TOP
 66
1
 70
1
 40
0.000000
 41
0.000000
 39
0.000000
  0
VERTEX
  8
PIN_TOP
 10
95.253988
 20
1.234008
 40
0.000000
 41
0.000000
 42
0.000000
  0
VERTEX
  8
PIN_TOP
 10
94.745988
 20
1.234008
 40
0.000000
 41
0.000000
 42
-1.000000
  0
VERTEX
  8
PIN_TOP
 10
94.745988
 20
3.266008
 40
0.000000
 41
0.000000
 42
0.000000
  0
VERTEX
  8
PIN_TOP
 10
95.253988
 20
3.266008
 40
0.000000
 41
0.000000
 42
-1.000000
  0
SEQEND
  0
POLYLINE
  8
PACKAGE_GEOMETRY_SILKSCREEN_TOP
 66
1
 70
1
 40
0.000000
 41
0.000000
 39
0.000000
  0
VERTEX
  8
PACKAGE_GEOMETRY_SILKSCREEN_TOP
 10
95.737909
 20
8.500008
 40
0.000000
 41
0.000000
 42
1.000000
  0
VERTEX
  8
PACKAGE_GEOMETRY_SILKSCREEN_TOP
 10
89.262091
 20
8.499992
 40
0.000000
 41
0.000000
 42
1.000000
  0
SEQEND
  0
POLYLINE
  8
PACKAGE_GEOMETRY_SILKSCREEN_TOP
 66
1
 70
1
 40
0.000000
 41
0.000000
 39
0.000000
  0
VERTEX
  8
PACKAGE_GEOMETRY_SILKSCREEN_TOP
 10
86.500005
 20
14.499996
 40
0.000000
 41
0.000000
 42
0.000000
  0
VERTEX
  8
PACKAGE_GEOMETRY_SILKSCREEN_TOP
 10
98.500006
 20
14.499996
 40
0.000000
 41
0.000000
 42
0.000000
  0
VERTEX
  8
PACKAGE_GEOMETRY_SILKSCREEN_TOP
 10
98.500006
 20
2.499995
 40
0.000000
 41
0.000000
 42
0.000000
  0
VERTEX
  8
PACKAGE_GEOMETRY_SILKSCREEN_TOP
 10
86.500005
 20
2.499995
 40
0.000000
 41
0.000000
 42
0.000000
  0
SEQEND
  0
POLYLINE
  8
PIN_TOP
 66
1
 70
1
 40
0.000000
 41
0.000000
 39
0.000000
  0
VERTEX
  8
PIN_TOP
 10
80.253992
 20
13.734009
 40
0.000000
 41
0.000000
 42
0.000000
  0
VERTEX
  8
PIN_TOP
 10
79.745992
 20
13.734009
 40
0.000000
 41
0.000000
 42
-1.000000
  0
VERTEX
  8
PIN_TOP
 10
79.745992
 20
15.766009
 40
0.000000
 41
0.000000
 42
0.000000
  0
VERTEX
  8
PIN_TOP
 10
80.253992
 20
15.766009
 40
0.000000
 41
0.000000
 42
-1.000000
  0
SEQEND
  0
POLYLINE
  8
PIN_TOP
 66
1
 70
1
 40
0.000000
 41
0.000000
 39
0.000000
  0
VERTEX
  8
PIN_TOP
 10
75.254002
 20
1.234008
 40
0.000000
 41
0.000000
 42
0.000000
  0
VERTEX
  8
PIN_TOP
 10
74.746002
 20
1.234008
 40
0.000000
 41
0.000000
 42
-1.000000
  0
VERTEX
  8
PIN_TOP
 10
74.746002
 20
3.266008
 40
0.000000
 41
0.000000
 42
0.000000
  0
VERTEX
  8
PIN_TOP
 10
75.254002
 20
3.266008
 40
0.000000
 41
0.000000
 42
-1.000000
  0
SEQEND
  0
POLYLINE
  8
PIN_TOP
 66
1
 70
1
 40
0.000000
 41
0.000000
 39
0.000000
  0
VERTEX
  8
PIN_TOP
 10
75.254002
 20
13.734009
 40
0.000000
 41
0.000000
 42
0.000000
  0
VERTEX
  8
PIN_TOP
 10
74.746002
 20
13.734009
 40
0.000000
 41
0.000000
 42
-1.000000
  0
VERTEX
  8
PIN_TOP
 10
74.746002
 20
15.766009
 40
0.000000
 41
0.000000
 42
0.000000
  0
VERTEX
  8
PIN_TOP
 10
75.254002
 20
15.766009
 40
0.000000
 41
0.000000
 42
-1.000000
  0
SEQEND
  0
POLYLINE
  8
PIN_TOP
 66
1
 70
1
 40
0.000000
 41
0.000000
 39
0.000000
  0
VERTEX
  8
PIN_TOP
 10
80.253992
 20
1.234008
 40
0.000000
 41
0.000000
 42
0.000000
  0
VERTEX
  8
PIN_TOP
 10
79.745992
 20
1.234008
 40
0.000000
 41
0.000000
 42
-1.000000
  0
VERTEX
  8
PIN_TOP
 10
79.745992
 20
3.266008
 40
0.000000
 41
0.000000
 42
0.000000
  0
VERTEX
  8
PIN_TOP
 10
80.253992
 20
3.266008
 40
0.000000
 41
0.000000
 42
-1.000000
  0
SEQEND
  0
POLYLINE
  8
PACKAGE_GEOMETRY_SILKSCREEN_TOP
 66
1
 70
1
 40
0.000000
 41
0.000000
 39
0.000000
  0
VERTEX
  8
PACKAGE_GEOMETRY_SILKSCREEN_TOP
 10
80.737888
 20
8.500008
 40
0.000000
 41
0.000000
 42
1.000000
  0
VERTEX
  8
PACKAGE_GEOMETRY_SILKSCREEN_TOP
 10
74.262112
 20
8.499992
 40
0.000000
 41
0.000000
 42
1.000000
  0
SEQEND
  0
POLYLINE
  8
PACKAGE_GEOMETRY_SILKSCREEN_TOP
 66
1
 70
1
 40
0.000000
 41
0.000000
 39
0.000000
  0
VERTEX
  8
PACKAGE_GEOMETRY_SILKSCREEN_TOP
 10
71.500009
 20
14.499996
 40
0.000000
 41
0.000000
 42
0.000000
  0
VERTEX
  8
PACKAGE_GEOMETRY_SILKSCREEN_TOP
 10
83.500011
 20
14.499996
 40
0.000000
 41
0.000000
 42
0.000000
  0
VERTEX
  8
PACKAGE_GEOMETRY_SILKSCREEN_TOP
 10
83.500011
 20
2.499995
 40
0.000000
 41
0.000000
 42
0.000000
  0
VERTEX
  8
PACKAGE_GEOMETRY_SILKSCREEN_TOP
 10
71.500009
 20
2.499995
 40
0.000000
 41
0.000000
 42
0.000000
  0
SEQEND
  0
POLYLINE
  8
PIN_TOP
 66
1
 70
1
 40
0.000000
 41
0.000000
 39
0.000000
  0
VERTEX
  8
PIN_TOP
 10
65.253997
 20
13.734009
 40
0.000000
 41
0.000000
 42
0.000000
  0
VERTEX
  8
PIN_TOP
 10
64.745997
 20
13.734009
 40
0.000000
 41
0.000000
 42
-1.000000
  0
VERTEX
  8
PIN_TOP
 10
64.745997
 20
15.766009
 40
0.000000
 41
0.000000
 42
0.000000
  0
VERTEX
  8
PIN_TOP
 10
65.253997
 20
15.766009
 40
0.000000
 41
0.000000
 42
-1.000000
  0
SEQEND
  0
POLYLINE
  8
PIN_TOP
 66
1
 70
1
 40
0.000000
 41
0.000000
 39
0.000000
  0
VERTEX
  8
PIN_TOP
 10
60.254007
 20
1.234008
 40
0.000000
 41
0.000000
 42
0.000000
  0
VERTEX
  8
PIN_TOP
 10
59.746007
 20
1.234008
 40
0.000000
 41
0.000000
 42
-1.000000
  0
VERTEX
  8
PIN_TOP
 10
59.746007
 20
3.266008
 40
0.000000
 41
0.000000
 42
0.000000
  0
VERTEX
  8
PIN_TOP
 10
60.254007
 20
3.266008
 40
0.000000
 41
0.000000
 42
-1.000000
  0
SEQEND
  0
POLYLINE
  8
PIN_TOP
 66
1
 70
1
 40
0.000000
 41
0.000000
 39
0.000000
  0
VERTEX
  8
PIN_TOP
 10
60.254007
 20
13.734009
 40
0.000000
 41
0.000000
 42
0.000000
  0
VERTEX
  8
PIN_TOP
 10
59.746007
 20
13.734009
 40
0.000000
 41
0.000000
 42
-1.000000
  0
VERTEX
  8
PIN_TOP
 10
59.746007
 20
15.766009
 40
0.000000
 41
0.000000
 42
0.000000
  0
VERTEX
  8
PIN_TOP
 10
60.254007
 20
15.766009
 40
0.000000
 41
0.000000
 42
-1.000000
  0
SEQEND
  0
POLYLINE
  8
PIN_TOP
 66
1
 70
1
 40
0.000000
 41
0.000000
 39
0.000000
  0
VERTEX
  8
PIN_TOP
 10
65.253997
 20
1.234008
 40
0.000000
 41
0.000000
 42
0.000000
  0
VERTEX
  8
PIN_TOP
 10
64.745997
 20
1.234008
 40
0.000000
 41
0.000000
 42
-1.000000
  0
VERTEX
  8
PIN_TOP
 10
64.745997
 20
3.266008
 40
0.000000
 41
0.000000
 42
0.000000
  0
VERTEX
  8
PIN_TOP
 10
65.253997
 20
3.266008
 40
0.000000
 41
0.000000
 42
-1.000000
  0
SEQEND
  0
POLYLINE
  8
PACKAGE_GEOMETRY_SILKSCREEN_TOP
 66
1
 70
1
 40
0.000000
 41
0.000000
 39
0.000000
  0
VERTEX
  8
PACKAGE_GEOMETRY_SILKSCREEN_TOP
 10
65.737892
 20
8.500008
 40
0.000000
 41
0.000000
 42
1.000000
  0
VERTEX
  8
PACKAGE_GEOMETRY_SILKSCREEN_TOP
 10
59.262108
 20
8.499992
 40
0.000000
 41
0.000000
 42
1.000000
  0
SEQEND
  0
POLYLINE
  8
PACKAGE_GEOMETRY_SILKSCREEN_TOP
 66
1
 70
1
 40
0.000000
 41
0.000000
 39
0.000000
  0
VERTEX
  8
PACKAGE_GEOMETRY_SILKSCREEN_TOP
 10
56.499989
 20
14.499996
 40
0.000000
 41
0.000000
 42
0.000000
  0
VERTEX
  8
PACKAGE_GEOMETRY_SILKSCREEN_TOP
 10
68.499990
 20
14.499996
 40
0.000000
 41
0.000000
 42
0.000000
  0
VERTEX
  8
PACKAGE_GEOMETRY_SILKSCREEN_TOP
 10
68.499990
 20
2.499995
 40
0.000000
 41
0.000000
 42
0.000000
  0
VERTEX
  8
PACKAGE_GEOMETRY_SILKSCREEN_TOP
 10
56.499989
 20
2.499995
 40
0.000000
 41
0.000000
 42
0.000000
  0
SEQEND
  0
POLYLINE
  8
PIN_TOP
 66
1
 70
1
 40
0.000000
 41
0.000000
 39
0.000000
  0
VERTEX
  8
PIN_TOP
 10
50.254002
 20
13.734009
 40
0.000000
 41
0.000000
 42
0.000000
  0
VERTEX
  8
PIN_TOP
 10
49.746002
 20
13.734009
 40
0.000000
 41
0.000000
 42
-1.000000
  0
VERTEX
  8
PIN_TOP
 10
49.746002
 20
15.766009
 40
0.000000
 41
0.000000
 42
0.000000
  0
VERTEX
  8
PIN_TOP
 10
50.254002
 20
15.766009
 40
0.000000
 41
0.000000
 42
-1.000000
  0
SEQEND
  0
POLYLINE
  8
PIN_TOP
 66
1
 70
1
 40
0.000000
 41
0.000000
 39
0.000000
  0
VERTEX
  8
PIN_TOP
 10
45.254012
 20
1.234008
 40
0.000000
 41
0.000000
 42
0.000000
  0
VERTEX
  8
PIN_TOP
 10
44.746012
 20
1.234008
 40
0.000000
 41
0.000000
 42
-1.000000
  0
VERTEX
  8
PIN_TOP
 10
44.746012
 20
3.266008
 40
0.000000
 41
0.000000
 42
0.000000
  0
VERTEX
  8
PIN_TOP
 10
45.254012
 20
3.266008
 40
0.000000
 41
0.000000
 42
-1.000000
  0
SEQEND
  0
POLYLINE
  8
PIN_TOP
 66
1
 70
1
 40
0.000000
 41
0.000000
 39
0.000000
  0
VERTEX
  8
PIN_TOP
 10
45.254012
 20
13.734009
 40
0.000000
 41
0.000000
 42
0.000000
  0
VERTEX
  8
PIN_TOP
 10
44.746012
 20
13.734009
 40
0.000000
 41
0.000000
 42
-1.000000
  0
VERTEX
  8
PIN_TOP
 10
44.746012
 20
15.766009
 40
0.000000
 41
0.000000
 42
0.000000
  0
VERTEX
  8
PIN_TOP
 10
45.254012
 20
15.766009
 40
0.000000
 41
0.000000
 42
-1.000000
  0
SEQEND
  0
POLYLINE
  8
PIN_TOP
 66
1
 70
1
 40
0.000000
 41
0.000000
 39
0.000000
  0
VERTEX
  8
PIN_TOP
 10
50.254002
 20
1.234008
 40
0.000000
 41
0.000000
 42
0.000000
  0
VERTEX
  8
PIN_TOP
 10
49.746002
 20
1.234008
 40
0.000000
 41
0.000000
 42
-1.000000
  0
VERTEX
  8
PIN_TOP
 10
49.746002
 20
3.266008
 40
0.000000
 41
0.000000
 42
0.000000
  0
VERTEX
  8
PIN_TOP
 10
50.254002
 20
3.266008
 40
0.000000
 41
0.000000
 42
-1.000000
  0
SEQEND
  0
POLYLINE
  8
PACKAGE_GEOMETRY_SILKSCREEN_TOP
 66
1
 70
1
 40
0.000000
 41
0.000000
 39
0.000000
  0
VERTEX
  8
PACKAGE_GEOMETRY_SILKSCREEN_TOP
 10
50.737897
 20
8.500008
 40
0.000000
 41
0.000000
 42
1.000000
  0
VERTEX
  8
PACKAGE_GEOMETRY_SILKSCREEN_TOP
 10
44.262103
 20
8.499992
 40
0.000000
 41
0.000000
 42
1.000000
  0
SEQEND
  0
POLYLINE
  8
PACKAGE_GEOMETRY_SILKSCREEN_TOP
 66
1
 70
1
 40
0.000000
 41
0.000000
 39
0.000000
  0
VERTEX
  8
PACKAGE_GEOMETRY_SILKSCREEN_TOP
 10
41.499993
 20
14.499996
 40
0.000000
 41
0.000000
 42
0.000000
  0
VERTEX
  8
PACKAGE_GEOMETRY_SILKSCREEN_TOP
 10
53.499995
 20
14.499996
 40
0.000000
 41
0.000000
 42
0.000000
  0
VERTEX
  8
PACKAGE_GEOMETRY_SILKSCREEN_TOP
 10
53.499995
 20
2.499995
 40
0.000000
 41
0.000000
 42
0.000000
  0
VERTEX
  8
PACKAGE_GEOMETRY_SILKSCREEN_TOP
 10
41.499993
 20
2.499995
 40
0.000000
 41
0.000000
 42
0.000000
  0
SEQEND
  0
POLYLINE
  8
PIN_TOP
 66
1
 70
1
 40
0.000000
 41
0.000000
 39
0.000000
  0
VERTEX
  8
PIN_TOP
 10
35.254006
 20
13.734009
 40
0.000000
 41
0.000000
 42
0.000000
  0
VERTEX
  8
PIN_TOP
 10
34.746006
 20
13.734009
 40
0.000000
 41
0.000000
 42
-1.000000
  0
VERTEX
  8
PIN_TOP
 10
34.746006
 20
15.766009
 40
0.000000
 41
0.000000
 42
0.000000
  0
VERTEX
  8
PIN_TOP
 10
35.254006
 20
15.766009
 40
0.000000
 41
0.000000
 42
-1.000000
  0
SEQEND
  0
POLYLINE
  8
PIN_TOP
 66
1
 70
1
 40
0.000000
 41
0.000000
 39
0.000000
  0
VERTEX
  8
PIN_TOP
 10
30.254016
 20
1.234008
 40
0.000000
 41
0.000000
 42
0.000000
  0
VERTEX
  8
PIN_TOP
 10
29.746016
 20
1.234008
 40
0.000000
 41
0.000000
 42
-1.000000
  0
VERTEX
  8
PIN_TOP
 10
29.746016
 20
3.266008
 40
0.000000
 41
0.000000
 42
0.000000
  0
VERTEX
  8
PIN_TOP
 10
30.254016
 20
3.266008
 40
0.000000
 41
0.000000
 42
-1.000000
  0
SEQEND
  0
POLYLINE
  8
PIN_TOP
 66
1
 70
1
 40
0.000000
 41
0.000000
 39
0.000000
  0
VERTEX
  8
PIN_TOP
 10
30.254016
 20
13.734009
 40
0.000000
 41
0.000000
 42
0.000000
  0
VERTEX
  8
PIN_TOP
 10
29.746016
 20
13.734009
 40
0.000000
 41
0.000000
 42
-1.000000
  0
VERTEX
  8
PIN_TOP
 10
29.746016
 20
15.766009
 40
0.000000
 41
0.000000
 42
0.000000
  0
VERTEX
  8
PIN_TOP
 10
30.254016
 20
15.766009
 40
0.000000
 41
0.000000
 42
-1.000000
  0
SEQEND
  0
POLYLINE
  8
PIN_TOP
 66
1
 70
1
 40
0.000000
 41
0.000000
 39
0.000000
  0
VERTEX
  8
PIN_TOP
 10
35.254006
 20
1.234008
 40
0.000000
 41
0.000000
 42
0.000000
  0
VERTEX
  8
PIN_TOP
 10
34.746006
 20
1.234008
 40
0.000000
 41
0.000000
 42
-1.000000
  0
VERTEX
  8
PIN_TOP
 10
34.746006
 20
3.266008
 40
0.000000
 41
0.000000
 42
0.000000
  0
VERTEX
  8
PIN_TOP
 10
35.254006
 20
3.266008
 40
0.000000
 41
0.000000
 42
-1.000000
  0
SEQEND
  0
POLYLINE
  8
PACKAGE_GEOMETRY_SILKSCREEN_TOP
 66
1
 70
1
 40
0.000000
 41
0.000000
 39
0.000000
  0
VERTEX
  8
PACKAGE_GEOMETRY_SILKSCREEN_TOP
 10
35.737902
 20
8.500008
 40
0.000000
 41
0.000000
 42
1.000000
  0
VERTEX
  8
PACKAGE_GEOMETRY_SILKSCREEN_TOP
 10
29.262098
 20
8.499992
 40
0.000000
 41
0.000000
 42
1.000000
  0
SEQEND
  0
POLYLINE
  8
PACKAGE_GEOMETRY_SILKSCREEN_TOP
 66
1
 70
1
 40
0.000000
 41
0.000000
 39
0.000000
  0
VERTEX
  8
PACKAGE_GEOMETRY_SILKSCREEN_TOP
 10
26.499998
 20
14.499996
 40
0.000000
 41
0.000000
 42
0.000000
  0
VERTEX
  8
PACKAGE_GEOMETRY_SILKSCREEN_TOP
 10
38.499999
 20
14.499996
 40
0.000000
 41
0.000000
 42
0.000000
  0
VERTEX
  8
PACKAGE_GEOMETRY_SILKSCREEN_TOP
 10
38.499999
 20
2.499995
 40
0.000000
 41
0.000000
 42
0.000000
  0
VERTEX
  8
PACKAGE_GEOMETRY_SILKSCREEN_TOP
 10
26.499998
 20
2.499995
 40
0.000000
 41
0.000000
 42
0.000000
  0
SEQEND
  0
POLYLINE
  8
PIN_TOP
 66
1
 70
1
 40
0.000000
 41
0.000000
 39
0.000000
  0
VERTEX
  8
PIN_TOP
 10
20.253985
 20
13.734009
 40
0.000000
 41
0.000000
 42
0.000000
  0
VERTEX
  8
PIN_TOP
 10
19.745985
 20
13.734009
 40
0.000000
 41
0.000000
 42
-1.000000
  0
VERTEX
  8
PIN_TOP
 10
19.745985
 20
15.766009
 40
0.000000
 41
0.000000
 42
0.000000
  0
VERTEX
  8
PIN_TOP
 10
20.253985
 20
15.766009
 40
0.000000
 41
0.000000
 42
-1.000000
  0
SEQEND
  0
POLYLINE
  8
PIN_TOP
 66
1
 70
1
 40
0.000000
 41
0.000000
 39
0.000000
  0
VERTEX
  8
PIN_TOP
 10
15.253995
 20
1.234008
 40
0.000000
 41
0.000000
 42
0.000000
  0
VERTEX
  8
PIN_TOP
 10
14.745995
 20
1.234008
 40
0.000000
 41
0.000000
 42
-1.000000
  0
VERTEX
  8
PIN_TOP
 10
14.745995
 20
3.266008
 40
0.000000
 41
0.000000
 42
0.000000
  0
VERTEX
  8
PIN_TOP
 10
15.253995
 20
3.266008
 40
0.000000
 41
0.000000
 42
-1.000000
  0
SEQEND
  0
POLYLINE
  8
PIN_TOP
 66
1
 70
1
 40
0.000000
 41
0.000000
 39
0.000000
  0
VERTEX
  8
PIN_TOP
 10
15.253995
 20
13.734009
 40
0.000000
 41
0.000000
 42
0.000000
  0
VERTEX
  8
PIN_TOP
 10
14.745995
 20
13.734009
 40
0.000000
 41
0.000000
 42
-1.000000
  0
VERTEX
  8
PIN_TOP
 10
14.745995
 20
15.766009
 40
0.000000
 41
0.000000
 42
0.000000
  0
VERTEX
  8
PIN_TOP
 10
15.253995
 20
15.766009
 40
0.000000
 41
0.000000
 42
-1.000000
  0
SEQEND
  0
POLYLINE
  8
PIN_TOP
 66
1
 70
1
 40
0.000000
 41
0.000000
 39
0.000000
  0
VERTEX
  8
PIN_TOP
 10
20.253985
 20
1.234008
 40
0.000000
 41
0.000000
 42
0.000000
  0
VERTEX
  8
PIN_TOP
 10
19.745985
 20
1.234008
 40
0.000000
 41
0.000000
 42
-1.000000
  0
VERTEX
  8
PIN_TOP
 10
19.745985
 20
3.266008
 40
0.000000
 41
0.000000
 42
0.000000
  0
VERTEX
  8
PIN_TOP
 10
20.253985
 20
3.266008
 40
0.000000
 41
0.000000
 42
-1.000000
  0
SEQEND
  0
POLYLINE
  8
PACKAGE_GEOMETRY_SILKSCREEN_TOP
 66
1
 70
1
 40
0.000000
 41
0.000000
 39
0.000000
  0
VERTEX
  8
PACKAGE_GEOMETRY_SILKSCREEN_TOP
 10
20.737906
 20
8.500008
 40
0.000000
 41
0.000000
 42
1.000000
  0
VERTEX
  8
PACKAGE_GEOMETRY_SILKSCREEN_TOP
 10
14.262094
 20
8.499992
 40
0.000000
 41
0.000000
 42
1.000000
  0
SEQEND
  0
POLYLINE
  8
PACKAGE_GEOMETRY_SILKSCREEN_TOP
 66
1
 70
1
 40
0.000000
 41
0.000000
 39
0.000000
  0
VERTEX
  8
PACKAGE_GEOMETRY_SILKSCREEN_TOP
 10
11.500002
 20
14.499996
 40
0.000000
 41
0.000000
 42
0.000000
  0
VERTEX
  8
PACKAGE_GEOMETRY_SILKSCREEN_TOP
 10
23.500004
 20
14.499996
 40
0.000000
 41
0.000000
 42
0.000000
  0
VERTEX
  8
PACKAGE_GEOMETRY_SILKSCREEN_TOP
 10
23.500004
 20
2.499995
 40
0.000000
 41
0.000000
 42
0.000000
  0
VERTEX
  8
PACKAGE_GEOMETRY_SILKSCREEN_TOP
 10
11.500002
 20
2.499995
 40
0.000000
 41
0.000000
 42
0.000000
  0
SEQEND
  0
CIRCLE
  8
PIN_TOP
 10
51.000000
 20
96.730007
 40
0.762000
  0
POLYLINE
  8
PIN_TOP
 66
1
 70
1
 40
0.000000
 41
0.000000
 39
0.000000
  0
VERTEX
  8
PIN_TOP
 10
50.238000
 20
100.032007
 40
0.000000
 41
0.000000
 42
0.000000
  0
VERTEX
  8
PIN_TOP
 10
51.762000
 20
100.032007
 40
0.000000
 41
0.000000
 42
0.000000
  0
VERTEX
  8
PIN_TOP
 10
51.762000
 20
98.508007
 40
0.000000
 41
0.000000
 42
0.000000
  0
VERTEX
  8
PIN_TOP
 10
50.238000
 20
98.508007
 40
0.000000
 41
0.000000
 42
0.000000
  0
SEQEND
  0
POLYLINE
  8
PACKAGE_GEOMETRY_SILKSCREEN_TOP
 66
1
 70
1
 40
0.000000
 41
0.000000
 39
0.000000
  0
VERTEX
  8
PACKAGE_GEOMETRY_SILKSCREEN_TOP
 10
53.540101
 20
98.000007
 40
0.100000
 41
0.100000
 42
1.000000
  0
VERTEX
  8
PACKAGE_GEOMETRY_SILKSCREEN_TOP
 10
48.459964
 20
98.000028
 40
0.100000
 41
0.100000
 42
1.000000
  0
SEQEND
  0
POLYLINE
  8
PACKAGE_GEOMETRY_SILKSCREEN_TOP
 66
1
 70
0
 40
0.000000
 41
0.000000
 39
0.000000
  0
VERTEX
  8
PACKAGE_GEOMETRY_SILKSCREEN_TOP
 10
51.199999
 20
101.200001
 40
0.100000
 41
0.100000
 42
0.000000
  0
VERTEX
  8
PACKAGE_GEOMETRY_SILKSCREEN_TOP
 10
51.199999
 20
100.800002
 40
0.100000
 41
0.100000
 42
0.000000
  0
SEQEND
  0
POLYLINE
  8
PACKAGE_GEOMETRY_SILKSCREEN_TOP
 66
1
 70
0
 40
0.000000
 41
0.000000
 39
0.000000
  0
VERTEX
  8
PACKAGE_GEOMETRY_SILKSCREEN_TOP
 10
51.399999
 20
101.000001
 40
0.100000
 41
0.100000
 42
0.000000
  0
VERTEX
  8
PACKAGE_GEOMETRY_SILKSCREEN_TOP
 10
51.000000
 20
101.000001
 40
0.100000
 41
0.100000
 42
0.000000
  0
SEQEND
  0
CIRCLE
  8
PIN_TOP
 10
42.999990
 20
96.730007
 40
0.762000
  0
POLYLINE
  8
PIN_TOP
 66
1
 70
1
 40
0.000000
 41
0.000000
 39
0.000000
  0
VERTEX
  8
PIN_TOP
 10
42.237990
 20
100.032007
 40
0.000000
 41
0.000000
 42
0.000000
  0
VERTEX
  8
PIN_TOP
 10
43.761990
 20
100.032007
 40
0.000000
 41
0.000000
 42
0.000000
  0
VERTEX
  8
PIN_TOP
 10
43.761990
 20
98.508007
 40
0.000000
 41
0.000000
 42
0.000000
  0
VERTEX
  8
PIN_TOP
 10
42.237990
 20
98.508007
 40
0.000000
 41
0.000000
 42
0.000000
  0
SEQEND
  0
POLYLINE
  8
PACKAGE_GEOMETRY_SILKSCREEN_TOP
 66
1
 70
1
 40
0.000000
 41
0.000000
 39
0.000000
  0
VERTEX
  8
PACKAGE_GEOMETRY_SILKSCREEN_TOP
 10
45.539990
 20
98.000007
 40
0.100000
 41
0.100000
 42
1.000000
  0
VERTEX
  8
PACKAGE_GEOMETRY_SILKSCREEN_TOP
 10
40.460052
 20
97.999933
 40
0.100000
 41
0.100000
 42
1.000000
  0
SEQEND
  0
POLYLINE
  8
PACKAGE_GEOMETRY_SILKSCREEN_TOP
 66
1
 70
0
 40
0.000000
 41
0.000000
 39
0.000000
  0
VERTEX
  8
PACKAGE_GEOMETRY_SILKSCREEN_TOP
 10
43.199990
 20
101.200001
 40
0.100000
 41
0.100000
 42
0.000000
  0
VERTEX
  8
PACKAGE_GEOMETRY_SILKSCREEN_TOP
 10
43.199990
 20
100.800002
 40
0.100000
 41
0.100000
 42
0.000000
  0
SEQEND
  0
POLYLINE
  8
PACKAGE_GEOMETRY_SILKSCREEN_TOP
 66
1
 70
0
 40
0.000000
 41
0.000000
 39
0.000000
  0
VERTEX
  8
PACKAGE_GEOMETRY_SILKSCREEN_TOP
 10
43.399989
 20
101.000001
 40
0.100000
 41
0.100000
 42
0.000000
  0
VERTEX
  8
PACKAGE_GEOMETRY_SILKSCREEN_TOP
 10
42.999990
 20
101.000001
 40
0.100000
 41
0.100000
 42
0.000000
  0
SEQEND
  0
CIRCLE
  8
PIN_TOP
 10
66.999993
 20
96.730007
 40
0.762000
  0
POLYLINE
  8
PIN_TOP
 66
1
 70
1
 40
0.000000
 41
0.000000
 39
0.000000
  0
VERTEX
  8
PIN_TOP
 10
66.237993
 20
100.032007
 40
0.000000
 41
0.000000
 42
0.000000
  0
VERTEX
  8
PIN_TOP
 10
67.761993
 20
100.032007
 40
0.000000
 41
0.000000
 42
0.000000
  0
VERTEX
  8
PIN_TOP
 10
67.761993
 20
98.508007
 40
0.000000
 41
0.000000
 42
0.000000
  0
VERTEX
  8
PIN_TOP
 10
66.237993
 20
98.508007
 40
0.000000
 41
0.000000
 42
0.000000
  0
SEQEND
  0
POLYLINE
  8
PACKAGE_GEOMETRY_SILKSCREEN_TOP
 66
1
 70
1
 40
0.000000
 41
0.000000
 39
0.000000
  0
VERTEX
  8
PACKAGE_GEOMETRY_SILKSCREEN_TOP
 10
69.539993
 20
98.000007
 40
0.100000
 41
0.100000
 42
1.000000
  0
VERTEX
  8
PACKAGE_GEOMETRY_SILKSCREEN_TOP
 10
64.460049
 20
97.999971
 40
0.100000
 41
0.100000
 42
1.000000
  0
SEQEND
  0
POLYLINE
  8
PACKAGE_GEOMETRY_SILKSCREEN_TOP
 66
1
 70
0
 40
0.000000
 41
0.000000
 39
0.000000
  0
VERTEX
  8
PACKAGE_GEOMETRY_SILKSCREEN_TOP
 10
67.199993
 20
101.200001
 40
0.100000
 41
0.100000
 42
0.000000
  0
VERTEX
  8
PACKAGE_GEOMETRY_SILKSCREEN_TOP
 10
67.199993
 20
100.800002
 40
0.100000
 41
0.100000
 42
0.000000
  0
SEQEND
  0
POLYLINE
  8
PACKAGE_GEOMETRY_SILKSCREEN_TOP
 66
1
 70
0
 40
0.000000
 41
0.000000
 39
0.000000
  0
VERTEX
  8
PACKAGE_GEOMETRY_SILKSCREEN_TOP
 10
67.399992
 20
101.000001
 40
0.100000
 41
0.100000
 42
0.000000
  0
VERTEX
  8
PACKAGE_GEOMETRY_SILKSCREEN_TOP
 10
66.999993
 20
101.000001
 40
0.100000
 41
0.100000
 42
0.000000
  0
SEQEND
  0
CIRCLE
  8
PIN_TOP
 10
59.000009
 20
96.730007
 40
0.762000
  0
POLYLINE
  8
PIN_TOP
 66
1
 70
1
 40
0.000000
 41
0.000000
 39
0.000000
  0
VERTEX
  8
PIN_TOP
 10
58.238009
 20
100.032007
 40
0.000000
 41
0.000000
 42
0.000000
  0
VERTEX
  8
PIN_TOP
 10
59.762009
 20
100.032007
 40
0.000000
 41
0.000000
 42
0.000000
  0
VERTEX
  8
PIN_TOP
 10
59.762009
 20
98.508007
 40
0.000000
 41
0.000000
 42
0.000000
  0
VERTEX
  8
PIN_TOP
 10
58.238009
 20
98.508007
 40
0.000000
 41
0.000000
 42
0.000000
  0
SEQEND
  0
POLYLINE
  8
PACKAGE_GEOMETRY_SILKSCREEN_TOP
 66
1
 70
1
 40
0.000000
 41
0.000000
 39
0.000000
  0
VERTEX
  8
PACKAGE_GEOMETRY_SILKSCREEN_TOP
 10
61.540009
 20
98.000007
 40
0.100000
 41
0.100000
 42
1.000000
  0
VERTEX
  8
PACKAGE_GEOMETRY_SILKSCREEN_TOP
 10
56.460033
 20
97.999984
 40
0.100000
 41
0.100000
 42
1.000000
  0
SEQEND
  0
POLYLINE
  8
PACKAGE_GEOMETRY_SILKSCREEN_TOP
 66
1
 70
0
 40
0.000000
 41
0.000000
 39
0.000000
  0
VERTEX
  8
PACKAGE_GEOMETRY_SILKSCREEN_TOP
 10
59.200009
 20
101.200001
 40
0.100000
 41
0.100000
 42
0.000000
  0
VERTEX
  8
PACKAGE_GEOMETRY_SILKSCREEN_TOP
 10
59.200009
 20
100.800002
 40
0.100000
 41
0.100000
 42
0.000000
  0
SEQEND
  0
POLYLINE
  8
PACKAGE_GEOMETRY_SILKSCREEN_TOP
 66
1
 70
0
 40
0.000000
 41
0.000000
 39
0.000000
  0
VERTEX
  8
PACKAGE_GEOMETRY_SILKSCREEN_TOP
 10
59.400008
 20
101.000001
 40
0.100000
 41
0.100000
 42
0.000000
  0
VERTEX
  8
PACKAGE_GEOMETRY_SILKSCREEN_TOP
 10
59.000009
 20
101.000001
 40
0.100000
 41
0.100000
 42
0.000000
  0
SEQEND
  0
CIRCLE
  8
PIN_TOP
 10
75.000002
 20
96.730007
 40
0.762000
  0
POLYLINE
  8
PIN_TOP
 66
1
 70
1
 40
0.000000
 41
0.000000
 39
0.000000
  0
VERTEX
  8
PIN_TOP
 10
74.238002
 20
100.032007
 40
0.000000
 41
0.000000
 42
0.000000
  0
VERTEX
  8
PIN_TOP
 10
75.762002
 20
100.032007
 40
0.000000
 41
0.000000
 42
0.000000
  0
VERTEX
  8
PIN_TOP
 10
75.762002
 20
98.508007
 40
0.000000
 41
0.000000
 42
0.000000
  0
VERTEX
  8
PIN_TOP
 10
74.238002
 20
98.508007
 40
0.000000
 41
0.000000
 42
0.000000
  0
SEQEND
  0
POLYLINE
  8
PACKAGE_GEOMETRY_SILKSCREEN_TOP
 66
1
 70
1
 40
0.000000
 41
0.000000
 39
0.000000
  0
VERTEX
  8
PACKAGE_GEOMETRY_SILKSCREEN_TOP
 10
77.540104
 20
98.000007
 40
0.100000
 41
0.100000
 42
1.000000
  0
VERTEX
  8
PACKAGE_GEOMETRY_SILKSCREEN_TOP
 10
72.459938
 20
98.000068
 40
0.100000
 41
0.100000
 42
1.000000
  0
SEQEND
  0
POLYLINE
  8
PACKAGE_GEOMETRY_SILKSCREEN_TOP
 66
1
 70
0
 40
0.000000
 41
0.000000
 39
0.000000
  0
VERTEX
  8
PACKAGE_GEOMETRY_SILKSCREEN_TOP
 10
75.200002
 20
101.200001
 40
0.100000
 41
0.100000
 42
0.000000
  0
VERTEX
  8
PACKAGE_GEOMETRY_SILKSCREEN_TOP
 10
75.200002
 20
100.800002
 40
0.100000
 41
0.100000
 42
0.000000
  0
SEQEND
  0
POLYLINE
  8
PACKAGE_GEOMETRY_SILKSCREEN_TOP
 66
1
 70
0
 40
0.000000
 41
0.000000
 39
0.000000
  0
VERTEX
  8
PACKAGE_GEOMETRY_SILKSCREEN_TOP
 10
75.400002
 20
101.000001
 40
0.100000
 41
0.100000
 42
0.000000
  0
VERTEX
  8
PACKAGE_GEOMETRY_SILKSCREEN_TOP
 10
75.000002
 20
101.000001
 40
0.100000
 41
0.100000
 42
0.000000
  0
SEQEND
  0
CIRCLE
  8
PIN_TOP
 10
35.000006
 20
96.730007
 40
0.762000
  0
POLYLINE
  8
PIN_TOP
 66
1
 70
1
 40
0.000000
 41
0.000000
 39
0.000000
  0
VERTEX
  8
PIN_TOP
 10
34.238006
 20
100.032007
 40
0.000000
 41
0.000000
 42
0.000000
  0
VERTEX
  8
PIN_TOP
 10
35.762006
 20
100.032007
 40
0.000000
 41
0.000000
 42
0.000000
  0
VERTEX
  8
PIN_TOP
 10
35.762006
 20
98.508007
 40
0.000000
 41
0.000000
 42
0.000000
  0
VERTEX
  8
PIN_TOP
 10
34.238006
 20
98.508007
 40
0.000000
 41
0.000000
 42
0.000000
  0
SEQEND
  0
POLYLINE
  8
PACKAGE_GEOMETRY_SILKSCREEN_TOP
 66
1
 70
1
 40
0.000000
 41
0.000000
 39
0.000000
  0
VERTEX
  8
PACKAGE_GEOMETRY_SILKSCREEN_TOP
 10
37.540006
 20
98.000007
 40
0.100000
 41
0.100000
 42
1.000000
  0
VERTEX
  8
PACKAGE_GEOMETRY_SILKSCREEN_TOP
 10
32.460036
 20
97.999951
 40
0.100000
 41
0.100000
 42
1.000000
  0
SEQEND
  0
POLYLINE
  8
PACKAGE_GEOMETRY_SILKSCREEN_TOP
 66
1
 70
0
 40
0.000000
 41
0.000000
 39
0.000000
  0
VERTEX
  8
PACKAGE_GEOMETRY_SILKSCREEN_TOP
 10
35.200006
 20
101.200001
 40
0.100000
 41
0.100000
 42
0.000000
  0
VERTEX
  8
PACKAGE_GEOMETRY_SILKSCREEN_TOP
 10
35.200006
 20
100.800002
 40
0.100000
 41
0.100000
 42
0.000000
  0
SEQEND
  0
POLYLINE
  8
PACKAGE_GEOMETRY_SILKSCREEN_TOP
 66
1
 70
0
 40
0.000000
 41
0.000000
 39
0.000000
  0
VERTEX
  8
PACKAGE_GEOMETRY_SILKSCREEN_TOP
 10
35.400005
 20
101.000001
 40
0.100000
 41
0.100000
 42
0.000000
  0
VERTEX
  8
PACKAGE_GEOMETRY_SILKSCREEN_TOP
 10
35.000006
 20
101.000001
 40
0.100000
 41
0.100000
 42
0.000000
  0
SEQEND
  0
CIRCLE
  8
PIN_TOP
 10
69.499988
 20
116.499996
 40
1.499997
  0
CIRCLE
  8
PIN_TOP
 10
40.499995
 20
116.499996
 40
1.499997
  0
POLYLINE
  8
PIN_TOP
 66
1
 70
1
 40
0.000000
 41
0.000000
 39
0.000000
  0
VERTEX
  8
PIN_TOP
 10
56.777992
 20
106.237989
 40
0.000000
 41
0.000000
 42
0.000000
  0
VERTEX
  8
PIN_TOP
 10
56.777992
 20
107.761989
 40
0.000000
 41
0.000000
 42
0.000000
  0
VERTEX
  8
PIN_TOP
 10
58.301992
 20
107.761989
 40
0.000000
 41
0.000000
 42
0.000000
  0
VERTEX
  8
PIN_TOP
 10
58.301992
 20
106.237989
 40
0.000000
 41
0.000000
 42
0.000000
  0
SEQEND
  0
CIRCLE
  8
PIN_TOP
 10
54.999992
 20
106.999989
 40
0.762000
  0
CIRCLE
  8
PIN_TOP
 10
52.459992
 20
106.999989
 40
0.762000
  0
POLYLINE
  8
PACKAGE_GEOMETRY_SILKSCREEN_TOP
 66
1
 70
1
 40
0.000000
 41
0.000000
 39
0.000000
  0
VERTEX
  8
PACKAGE_GEOMETRY_SILKSCREEN_TOP
 10
38.499999
 20
103.999995
 40
0.127000
 41
0.127000
 42
0.000000
  0
VERTEX
  8
PACKAGE_GEOMETRY_SILKSCREEN_TOP
 10
71.500009
 20
103.999995
 40
0.127000
 41
0.127000
 42
0.000000
  0
VERTEX
  8
PACKAGE_GEOMETRY_SILKSCREEN_TOP
 10
71.500009
 20
128.999996
 40
0.127000
 41
0.127000
 42
0.000000
  0
VERTEX
  8
PACKAGE_GEOMETRY_SILKSCREEN_TOP
 10
38.499999
 20
128.999996
 40
0.127000
 41
0.127000
 42
0.000000
  0
SEQEND
  0
POLYLINE
  8
PACKAGE_GEOMETRY_SILKSCREEN_TOP
 66
1
 70
1
 40
0.000000
 41
0.000000
 39
0.000000
  0
VERTEX
  8
PACKAGE_GEOMETRY_SILKSCREEN_TOP
 10
51.189992
 20
105.729989
 40
0.127000
 41
0.127000
 42
0.000000
  0
VERTEX
  8
PACKAGE_GEOMETRY_SILKSCREEN_TOP
 10
58.809992
 20
105.729989
 40
0.127000
 41
0.127000
 42
0.000000
  0
VERTEX
  8
PACKAGE_GEOMETRY_SILKSCREEN_TOP
 10
58.809992
 20
108.269989
 40
0.127000
 41
0.127000
 42
0.000000
  0
VERTEX
  8
PACKAGE_GEOMETRY_SILKSCREEN_TOP
 10
51.189992
 20
108.269989
 40
0.127000
 41
0.127000
 42
0.000000
  0
SEQEND
  0
CIRCLE
  8
PIN_TOP
 10
4.999990
 20
125.000004
 40
4.000005
  0
POLYLINE
  8
PACKAGE_GEOMETRY_SILKSCREEN_TOP
 66
1
 70
1
 40
0.000000
 41
0.000000
 39
0.000000
  0
VERTEX
  8
PACKAGE_GEOMETRY_SILKSCREEN_TOP
 10
6.199988
 20
125.000004
 40
0.000000
 41
0.000000
 42
1.000000
  0
VERTEX
  8
PACKAGE_GEOMETRY_SILKSCREEN_TOP
 10
3.800075
 20
124.999994
 40
0.000000
 41
0.000000
 42
1.000000
  0
SEQEND
  0
CIRCLE
  8
PIN_TOP
 10
104.999993
 20
4.999990
 40
4.000005
  0
POLYLINE
  8
PACKAGE_GEOMETRY_SILKSCREEN_TOP
 66
1
 70
1
 40
0.000000
 41
0.000000
 39
0.000000
  0
VERTEX
  8
PACKAGE_GEOMETRY_SILKSCREEN_TOP
 10
106.199991
 20
4.999990
 40
0.000000
 41
0.000000
 42
1.000000
  0
VERTEX
  8
PACKAGE_GEOMETRY_SILKSCREEN_TOP
 10
103.800055
 20
5.000008
 40
0.000000
 41
0.000000
 42
1.000000
  0
SEQEND
  0
CIRCLE
  8
PIN_TOP
 10
104.999993
 20
125.000004
 40
4.000005
  0
POLYLINE
  8
PACKAGE_GEOMETRY_SILKSCREEN_TOP
 66
1
 70
1
 40
0.000000
 41
0.000000
 39
0.000000
  0
VERTEX
  8
PACKAGE_GEOMETRY_SILKSCREEN_TOP
 10
106.199991
 20
125.000004
 40
0.000000
 41
0.000000
 42
1.000000
  0
VERTEX
  8
PACKAGE_GEOMETRY_SILKSCREEN_TOP
 10
103.800038
 20
124.999994
 40
0.000000
 41
0.000000
 42
1.000000
  0
SEQEND
  0
CIRCLE
  8
PIN_TOP
 10
4.999990
 20
4.999990
 40
4.000005
  0
POLYLINE
  8
PACKAGE_GEOMETRY_SILKSCREEN_TOP
 66
1
 70
1
 40
0.000000
 41
0.000000
 39
0.000000
  0
VERTEX
  8
PACKAGE_GEOMETRY_SILKSCREEN_TOP
 10
6.199988
 20
4.999990
 40
0.000000
 41
0.000000
 42
1.000000
  0
VERTEX
  8
PACKAGE_GEOMETRY_SILKSCREEN_TOP
 10
3.800025
 20
5.000008
 40
0.000000
 41
0.000000
 42
1.000000
  0
SEQEND
  0
CIRCLE
  8
PIN_TOP
 10
97.790000
 20
125.160989
 40
0.509994
  0
CIRCLE
  8
PIN_TOP
 10
12.700000
 20
124.779989
 40
0.509994
  0
CIRCLE
  8
PIN_TOP
 10
93.499991
 20
27.999995
 40
3.175000
  0
CIRCLE
  8
PIN_TOP
 10
16.499992
 20
27.999995
 40
3.175000
  0
CIRCLE
  8
PIN_TOP
 10
93.499991
 20
91.999994
 40
3.175000
  0
CIRCLE
  8
PIN_TOP
 10
16.499992
 20
91.999994
 40
3.175000
  0
POLYLINE
  8
BOARD_GEOMETRY_OUTLINE
 66
1
 70
1
 40
0.000000
 41
0.000000
 39
0.000000
  0
VERTEX
  8
BOARD_GEOMETRY_OUTLINE
 10
29.499992
 20
16.999991
 40
0.000000
 41
0.000000
 42
0.000000
  0
VERTEX
  8
BOARD_GEOMETRY_OUTLINE
 10
80.499991
 20
16.999991
 40
0.000000
 41
0.000000
 42
0.414214
  0
VERTEX
  8
BOARD_GEOMETRY_OUTLINE
 10
82.499987
 20
18.999987
 40
0.000000
 41
0.000000
 42
0.000000
  0
VERTEX
  8
BOARD_GEOMETRY_OUTLINE
 10
82.499987
 20
38.000000
 40
0.000000
 41
0.000000
 42
0.414214
  0
VERTEX
  8
BOARD_GEOMETRY_OUTLINE
 10
80.499991
 20
39.999996
 40
0.000000
 41
0.000000
 42
0.000000
  0
VERTEX
  8
BOARD_GEOMETRY_OUTLINE
 10
29.499992
 20
39.999996
 40
0.000000
 41
0.000000
 42
0.414214
  0
VERTEX
  8
BOARD_GEOMETRY_OUTLINE
 10
27.499996
 20
38.000000
 40
0.000000
 41
0.000000
 42
0.000000
  0
VERTEX
  8
BOARD_GEOMETRY_OUTLINE
 10
27.499996
 20
18.999987
 40
0.000000
 41
0.000000
 42
0.414214
  0
SEQEND
  0
POLYLINE
  8
BOARD_GEOMETRY_OUTLINE
 66
1
 70
1
 40
0.000000
 41
0.000000
 39
0.000000
  0
VERTEX
  8
BOARD_GEOMETRY_OUTLINE
 10
0.000000
 20
0.000000
 40
0.000000
 41
0.000000
 42
0.000000
  0
VERTEX
  8
BOARD_GEOMETRY_OUTLINE
 10
110.000009
 20
0.000000
 40
0.000000
 41
0.000000
 42
0.000000
  0
VERTEX
  8
BOARD_GEOMETRY_OUTLINE
 10
110.000009
 20
129.999994
 40
0.000000
 41
0.000000
 42
0.000000
  0
VERTEX
  8
BOARD_GEOMETRY_OUTLINE
 10
0.000000
 20
129.999994
 40
0.000000
 41
0.000000
 42
0.000000
  0
SEQEND
  0
POLYLINE
  8
PACKAGE_GEOMETRY_SILKSCREEN_TOP
 66
1
 70
0
 40
0.000000
 41
0.000000
 39
0.000000
  0
VERTEX
  8
PACKAGE_GEOMETRY_SILKSCREEN_TOP
 10
16.499992
 20
27.999995
 40
0.127000
 41
0.127000
 42
0.000000
  0
VERTEX
  8
PACKAGE_GEOMETRY_SILKSCREEN_TOP
 10
54.999992
 20
27.999995
 40
0.127000
 41
0.127000
 42
0.000000
  0
VERTEX
  8
PACKAGE_GEOMETRY_SILKSCREEN_TOP
 10
54.999992
 20
91.999994
 40
0.127000
 41
0.127000
 42
0.000000
  0
VERTEX
  8
PACKAGE_GEOMETRY_SILKSCREEN_TOP
 10
93.499991
 20
91.999994
 40
0.127000
 41
0.127000
 42
0.000000
  0
VERTEX
  8
PACKAGE_GEOMETRY_SILKSCREEN_TOP
 10
93.499991
 20
60.000007
 40
0.127000
 41
0.127000
 42
0.000000
  0
VERTEX
  8
PACKAGE_GEOMETRY_SILKSCREEN_TOP
 10
16.499992
 20
60.000007
 40
0.127000
 41
0.127000
 42
0.000000
  0
VERTEX
  8
PACKAGE_GEOMETRY_SILKSCREEN_TOP
 10
16.499992
 20
27.999995
 40
0.127000
 41
0.127000
 42
0.000000
  0
VERTEX
  8
PACKAGE_GEOMETRY_SILKSCREEN_TOP
 10
93.499991
 20
27.999995
 40
0.127000
 41
0.127000
 42
0.000000
  0
VERTEX
  8
PACKAGE_GEOMETRY_SILKSCREEN_TOP
 10
93.499991
 20
91.999994
 40
0.127000
 41
0.127000
 42
0.000000
  0
VERTEX
  8
PACKAGE_GEOMETRY_SILKSCREEN_TOP
 10
16.499992
 20
91.999994
 40
0.127000
 41
0.127000
 42
0.000000
  0
VERTEX
  8
PACKAGE_GEOMETRY_SILKSCREEN_TOP
 10
16.499992
 20
60.000007
 40
0.127000
 41
0.127000
 42
0.000000
  0
SEQEND
  0
TEXT
  8
PACKAGE_GEOMETRY_SILKSCREEN_TOP
 10
72.898000
 20
93.091000
 11
0.000000
 21
0.000000
 40
1.270000
 41
1.019520
 50
0.000000
  7
STANDARD
 71
0
 72
0
  1
COM
 73
0
  0
TEXT
  8
PACKAGE_GEOMETRY_SILKSCREEN_TOP
 10
64.897000
 20
93.091000
 11
0.000000
 21
0.000000
 40
1.270000
 41
1.019520
 50
0.000000
  7
STANDARD
 71
0
 72
0
  1
NET
 73
0
  0
TEXT
  8
PACKAGE_GEOMETRY_SILKSCREEN_TOP
 10
57.277000
 20
92.964000
 11
0.000000
 21
0.000000
 40
1.270000
 41
1.019520
 50
0.000000
  7
STANDARD
 71
0
 72
0
  1
ERR
 73
0
  0
TEXT
  8
PACKAGE_GEOMETRY_SILKSCREEN_TOP
 10
47.371000
 20
93.091000
 11
0.000000
 21
0.000000
 40
1.270000
 41
1.019520
 50
0.000000
  7
STANDARD
 71
0
 72
0
  1
FILTER
 73
0
  0
TEXT
  8
PACKAGE_GEOMETRY_SILKSCREEN_TOP
 10
40.513000
 20
93.091000
 11
0.000000
 21
0.000000
 40
1.270000
 41
1.019520
 50
0.000000
  7
STANDARD
 71
0
 72
0
  1
SIO2
 73
0
  0
TEXT
  8
PACKAGE_GEOMETRY_SILKSCREEN_TOP
 10
33.274000
 20
93.218000
 11
0.000000
 21
0.000000
 40
1.270000
 41
1.019520
 50
0.000000
  7
STANDARD
 71
0
 72
0
  1
RUN
 73
0
  0
TEXT
  8
PACKAGE_GEOMETRY_SILKSCREEN_TOP
 10
8.382000
 20
18.796000
 11
0.000000
 21
0.000000
 40
1.599895
 41
1.000064
 50
90.000000
  7
STANDARD
 71
0
 72
0
  1
VER:2.0
 73
0
  0
TEXT
  8
PACKAGE_GEOMETRY_SILKSCREEN_TOP
 10
4.953000
 20
18.861989
 11
0.000000
 21
0.000000
 40
1.599895
 41
1.000064
 50
90.000000
  7
STANDARD
 71
0
 72
0
  1
P/N:ITR-201C_FB_V20
 73
0
  0
ENDSEC
  0
EOF
